<svg id="Camada_1" data-name="Camada 1" xmlns="http://www.w3.org/2000/svg" viewBox="0 0 1000 1000"><defs><style>.cls-1{fill:#454922;}</style></defs><path class="cls-1" d="M577.77,672.64a.44.44,0,0,1,0-.87h.61V645.32h-.61a.43.43,0,0,1,0-.86h6.48c9,0,15.71,3.52,15.71,13.83,0,7.91-3.74,14.35-13.79,14.35Zm8.4-.87c9.52,0,12.92-6,12.92-13.48,0-9.66-6.31-13-14.84-13h-5v26.45Z"/><path class="cls-1" d="M604,672.12c-.26.57-.3.78-.65.78s-.39-.13-.39-.3a.68.68,0,0,1,0-.26l10.88-27.8a.58.58,0,0,1,.43-.35.59.59,0,0,1,.44.35l10.83,27.8a.57.57,0,0,1,0,.26c0,.17-.08.3-.39.3s-.39-.26-.65-.78l-4.22-10.74H608.26Zm10.31-26.27-5.74,14.66h11.44Z"/><path class="cls-1" d="M538.1,733.68c-13.33-1.14-31.61,11.66-38.59,25.93-11.19,10.45-23.76,19.51-32.57,18.75-3.77-.32-6.14-2.92-5.82-6.69,1-11.51,19.31-22.53,20-31.06.13-1.59-.38-2.63-2.47-3.81-3.79-2.52-11.32-8-11.2-9.35.28-3.18,9.47-10.19,9.72-13.16.14-1.59-1.89-3.56-3.48-3.7-4.17-.35-7.57,13.75-14.79,21.12a89.71,89.71,0,0,1-29.18,19.84,27.22,27.22,0,0,1-2.43,5,98.7,98.7,0,0,0,33.75-21.83c1.33-1.48,2.78-2.16,3.58-2.09,1.19.1,4.57,2.59,8.3,5.71,1.31,1.11,2.25,1.79,2.15,3-.65,7.54-18.13,18-19.18,30.34-.53,6.15,3.91,10.32,9.46,10.8,9,.76,20.82-6.52,31.64-15.6-.14.76-.26,1.53-.33,2.29-.79,9.32,5.26,15.63,13.79,16.36,15.68,1.34,39.62-19.2,41.09-36.46C552.28,740.89,547.43,734.48,538.1,733.68Zm8.31,15.1c-1.26,14.68-22.45,33.46-35.34,32.35-6.16-.52-9.59-4.81-9.06-11,1.32-15.48,22.21-33.08,35.9-31.91C543.07,738.7,546.91,742.83,546.41,748.78Z"/><path class="cls-1" d="M423.11,725.26c-12.5-1.07-32.43,12.41-40.12,18.15A299.4,299.4,0,0,1,401.77,720c1.12-1.3,1.56-1.86,1.63-2.65.09-1-1.2-2.31-2.39-2.41-1-.08-1.85.64-3.4,2.31A283.2,283.2,0,0,0,364,764.18c-11.8,21.17-22.92,46-24.39,63.26-.34,4,2,7,3.19,7.07s1.47-.87,1.86-5.43c1.53-17.86,12.15-41.54,23.52-62.35,2.82-5,6.05-10.07,9.78-14,5.29-5.75,30.6-23.57,43.69-22.45,3.17.27,5,2,4.67,6.19-.49,5.76-3.07,11.33-6.23,16.1a85,85,0,0,1-5.83,8.15,67.53,67.53,0,0,1-7.49,7.05,51.91,51.91,0,0,1-7.38,5.37c-4.51,2.68-9.8,4.76-15.14,4.31-3.58-.31-5.66-1.69-5.49-3.67.57-6.59,13.95-7.23,31.77-11.86a27.21,27.21,0,0,0,2.69-3.69c.23-.39.44-.79.65-1.19-21.5,6.11-39,6.6-39.89,16.53-.4,4.76,3.36,7.48,9.91,8,13.27,1.14,25.8-8.86,34-18.23,6.58-7.52,13.15-16.75,14-27C432.51,729.86,429.07,725.76,423.11,725.26Z"/><path class="cls-1" d="M629.87,815.07c-14-1.2-38.52,3.41-66.9,9.09.14.63.28,1.26.43,1.88s.36,1.3.57,1.91c28.22-5.63,52.38-10,65.56-8.92,18.46,1.58,28,9.59,26.78,23.48-1.44,16.86-22.76,32.43-47.36,30.33-11.07-1-22.21-4-31.25-10.65-8.57-6.32-14.37-15.47-17.6-25.53-4.27-13.27-4.45-27.65-3.28-41.43,1.54-18.05,6-28.66,6-28.66,26.76-20.89,68.4-56.71,69.67-71.59.44-5.16-2.47-8.6-7.43-9-17.85-1.52-67.14,44.43-72.65,108.91-1.27,14.88-1,29.88,3.87,44.14,3.41,10,9.23,19.09,17.61,25.6,8.83,6.86,19.7,10.39,30.69,11.79,1.26.16,2.52.29,3.78.4,26.19,2.23,50.24-14.9,51.87-33.94C661.65,826.77,651.1,816.88,629.87,815.07ZM625,690.14A3.13,3.13,0,0,1,628,693.8c-1.25,14.68-40.75,48.88-63.85,66.69C578.13,721.31,610.67,688.92,625,690.14Z"/><path class="cls-1" d="M547.3,827.27c-40.1,7.92-85.66,16.19-120.45,13.22-47.42-4-53.48-26.75-53.48-26.75-.31-1-.67-1.46-1.47-1.53a1.36,1.36,0,0,0-1.5,1.27,7.15,7.15,0,0,0,.08,1.41s6.43,25.33,56,29.57c34.83,3,81.17-5.43,121.54-13.36C547.78,829.83,547.55,828.55,547.3,827.27Z"/><path class="cls-1" d="M591.3,777.6c-1,11.31,7.23,18.4,17.54,19.28,23,2,47-21.76,47-21.76a4.5,4.5,0,0,0,1.16-1.9,1.67,1.67,0,0,0-1.63-1.94,3.4,3.4,0,0,0-2.09,1s-21.66,21.93-44.08,20c-8.13-.7-13.06-6.11-12.42-13.65a24.11,24.11,0,0,1,.52-3.76c17-2.54,45.14-11.33,46.14-23,.42-5-3.05-8.85-9.2-9.37C619.2,741.21,592.88,759.14,591.3,777.6Zm43.4-30.67c2.77.24,4.21,2.16,4.06,3.94-.78,9.13-24.27,17.31-39.65,19.6C605.62,757.43,623.19,745.94,634.7,746.93Z"/><path class="cls-1" d="M426.09,640.65h5.15v58.41h-5.73V648.5l-28,47.87L369.79,649v50.1h-3.51V640.65h5.38l.82,1.41,26.34,45.06Z"/><path class="cls-1" d="M500.77,693l2.7,6.08h-6.32l-7.26-15.68h-29.5a5,5,0,0,0-4.8,3l-6.09,12.64h-4l.36-.7,28.79-59.81H476L500.77,693l-.46.23Zm-12.4-12.65-13.93-31.25-15.69,31.25Zm-20.25-45.65v.47h-1.64v-.47a8,8,0,0,1,1-4.33,3.44,3.44,0,0,1,2.93-1.75,6.43,6.43,0,0,1,2.1.35c.63.31,1.45.74,2.46,1.28s1.72.82,2.34,1.06c1.49.62,2.5.55,3.05-.24a2.81,2.81,0,0,0,.58-1.87v-.47h1.64v.47a7.28,7.28,0,0,1-1.17,4.33,3.62,3.62,0,0,1-3.16,1.76,5.24,5.24,0,0,1-2.11-.47,20.73,20.73,0,0,1-2.46-1.17,14.83,14.83,0,0,0-2.34-1.17,4.45,4.45,0,0,0-1.75-.35,1.13,1.13,0,0,0-1.06.7A3.34,3.34,0,0,0,468.12,634.68Z"/><path class="cls-1" d="M520.79,665.82v29.61h39.8l-.82,3.63H515.05V640.65h44.72l.82,3.51h-39.8v18.15h22.83v3.51Z"/><path class="cls-1" d="M640.5,459.09c0-.47,0-.95,0-1.43a.6.6,0,0,0-.16-.41c0-4-.07-8-.12-12l0-3.62q-.07-7-.13-14,0-6.54-.07-13.07t0-13.22V385.18a.79.79,0,0,0,0-.23c-.07-7.69-.17-15.48-.27-23,0-3.49-.09-7-.13-10.45l-.22-17.55,0-3.51c0-4-.08-8.18-.29-12.27-.42-8.25-1.73-18.76-8.14-26.78-5-6.26-12.9-10.82-23.49-13.57a74.87,74.87,0,0,0-14.43-2.09h-.11a116.84,116.84,0,0,1-12.28-1.23,54.11,54.11,0,0,1-13-4.94,67.26,67.26,0,0,1-12.16-8.36c-7.11-6.09-13-13.27-16.52-22.05-.9-2.29-1.73-4.66-2.52-6.95-.4-1.14-.8-2.28-1.22-3.41-.12-.35-2.75-7.44-2.68-7.45-.36.05-.34.61-.7.7a48.58,48.58,0,0,0,1.51,4.92c.22.6.44,1.21.65,1.81.41,1.17.81,2.35,1.22,3.53.67,2,1.36,4,2.1,6a59.87,59.87,0,0,0,3,6.88.48.48,0,0,0,.13.31l.05,0a44.54,44.54,0,0,0,2.6,4.3A64.62,64.62,0,0,0,553.07,261c1.19,1.08,2.41,2.1,3.64,3.08,0,0-.05.08-.07.13a33.51,33.51,0,0,1-1.93,4.91c-.44.86-.91,1.71-1.39,2.55a.76.76,0,0,0-.56.4,39.78,39.78,0,0,1-7.84,10.08,41,41,0,0,1-11,7.56,24.73,24.73,0,0,1-12.13,2.43,28.5,28.5,0,0,1-12.24-4,37.44,37.44,0,0,1-10-8.55c-.25-.3-.48-.61-.72-.92a20.69,20.69,0,0,0,5.87-8.23,13.65,13.65,0,0,0,.66-7.37,52.73,52.73,0,0,0,8.78-9.74c2.31-3.21,4.45-6.6,6.52-9.89l1.58-2.5.23-.36c2.38-3.74,4.84-7.6,5.72-12a14.87,14.87,0,0,0,.26-2.29.72.72,0,0,1-.1-.24,4.62,4.62,0,0,1-.19-.47l0-.11-.11.06a2.19,2.19,0,0,1-.55.17,2.94,2.94,0,0,1-.51,0c0,.33,0,.66-.1,1l.06,0c-.35,3.87-2.36,7.51-4.25,10.65-.88,1.45-1.81,2.9-2.71,4.31l-1.32,2.07c-1.15,1.82-2.45,3.88-3.79,5.87A61.55,61.55,0,0,1,506,260.55c-2.83,2.65-7.11,6-11.68,4.82a37.39,37.39,0,0,1-10-4.78,113.11,113.11,0,0,1-9.94-7.13,96,96,0,0,1-9.09-8.05,94.55,94.55,0,0,1-8.75-10.33,163.3,163.3,0,0,1-13.75-22.93c-.44-.85-.86-1.7-1.29-2.55a4.23,4.23,0,0,1-.34-.4,1.48,1.48,0,0,1-.19-.35,2.61,2.61,0,0,1-.22-.61v0l-.29.46a.53.53,0,0,0-.09.34.61.61,0,0,0-.15.7,163.12,163.12,0,0,0,13.56,24.06,103,103,0,0,0,8.51,10.68,90.45,90.45,0,0,0,9.63,9c3.47,2.83,6.64,5.18,9.67,7.21a50.28,50.28,0,0,0,10.6,5.67,12.49,12.49,0,0,0,4.19.82,8.75,8.75,0,0,0,1.92-.2,15.47,15.47,0,0,0,5.78-2.79c.75,6.2-3.62,11.76-8.1,15-5,3.57-11.21,4.48-17.2,5.36l-1,.14c-6.1.9-12.52,2.07-18.15,5.44a40.52,40.52,0,0,0-11.9,11.26c-7.67,10.64-10.61,23.7-13,36.15l-.44,2.37c-1.13,6-2.29,12.15-3.89,18.12a199.68,199.68,0,0,1-6.42,19.52c-3.38,8.84-7.29,17.65-11.06,26.18-7,15.89-14.33,32.32-18.49,49.59-3.71,15.39-4.88,31.18-5.49,43.23-.34,6.62-.61,13.77-.83,21.86a113,113,0,0,0,.84,20.2,51.94,51.94,0,0,0,6.68,18.79,86.94,86.94,0,0,0,11.59,14.88c.37.38.73.79,1.1,1.19a27.69,27.69,0,0,0,5.54,5.07c.37.22.75.41,1.13.59a7.46,7.46,0,0,0,1.67,3.47,8.22,8.22,0,0,0,4,3.11,12.1,12.1,0,0,0,3.64.47c.87,0,1.73-.05,2.59-.1l1.13-.07,3.21-.15a1.15,1.15,0,0,0,.1.23,9.44,9.44,0,0,0,5.87,3.54,14.63,14.63,0,0,0,2.91.35,14.24,14.24,0,0,0,7.65,2l1.05,0a30,30,0,0,0,5-.69c.77-.17,1.57-.36,2.39-.59l.18,0a9.57,9.57,0,0,0,2-.73,4.9,4.9,0,0,0,1.77-1.93l.14-.26a7.39,7.39,0,0,0,3.5-.51,2.77,2.77,0,0,0,1.46-3.07,4.11,4.11,0,0,0-.6-1.73,109,109,0,0,0,15.33,1.07,118.47,118.47,0,0,0,14.23-.86,127.22,127.22,0,0,0,29.23-7.13,128.94,128.94,0,0,0,26.88-13.79A117.81,117.81,0,0,0,573,541.87c3.34-3.8,7.1-8.27,9.49-13.44a34.9,34.9,0,0,0,2.41-7.84,13.71,13.71,0,0,0-.08-7c0-.08-.06-.16-.08-.24a.58.58,0,0,0,0-.62l-1.46-2.71c-2.77-5.12-5.63-10.4-8.15-15.75A105.33,105.33,0,0,1,568,474.86a64.22,64.22,0,0,1-1.74-10.61c4.19,1.45,8.27,2.8,12.32,4.07,9.33,2.92,17.23,5.12,25.49,6.34,3.68.54,7.65,1,12.85,1.34,1.91.15,3.81.27,5.72.4l1.29.09c1.07.07,2.17.15,3.26.15a18,18,0,0,0,2.32-.14c6.72-.89,10.64-7.66,11-13.88A34.64,34.64,0,0,0,640.5,459.09ZM416.17,577.76a.73.73,0,0,0-.39-.15,10.26,10.26,0,0,1-2.56-1.62,68.57,68.57,0,0,1-6-6.1l-.66-.73a91.37,91.37,0,0,1-6.36-7.77,52.53,52.53,0,0,1-8.59-17.66c-1.87-7.3-2.06-15-2-20.8,0-5,.21-10,.41-14.94.8-.91,2.48-1,3.45-1.05s2.79.15,3.57,1.19a.24.24,0,0,0,.08.06,106.53,106.53,0,0,0,4.31,25c.74,2.61,1.61,5.36,2.63,8.39.11.32.22.64.32,1a18.35,18.35,0,0,0,3.13,6.49,16.63,16.63,0,0,0,6.12,4,43.29,43.29,0,0,1,7,3.71,20,20,0,0,1,3.23,2.61c.78.83,1.65,2,1.4,3.16-.2.89-1.05,1.42-2.52,1.58a32.78,32.78,0,0,1-3.29.13h-.84c-5.28.07-11.24-.37-15.52-4.12a12,12,0,0,1-2.32-2.76.72.72,0,0,0-1-.25.71.71,0,0,0-.25,1c3.24,5.41,9.58,6.93,13.08,7.35a38.88,38.88,0,0,0,4.83.27c.9,0,1.8,0,2.71-.06a.73.73,0,0,0-.29.34.67.67,0,0,0,.1.69c4.14,5.38,11.46,5,18,4.31,6-.67,14.13-.88,17.11,4.61l-21.49,2-3.21.33c-2.48.25-5,.52-7.55.66a15.93,15.93,0,0,1-6.67-.83Zm42.06,10a3,3,0,0,1-1.52.8,36.91,36.91,0,0,1-4,1,20.26,20.26,0,0,1-8.12.19,8,8,0,0,1-.81-.21l.59-.1.76-.12,2.82-.46c2.26-.38,4.59-.78,6.9-1,1.26-.14,2.42-.23,3.52-.27Zm5.22-2.69c-.1.18-.39.33-.86.45a9.86,9.86,0,0,1-2.56.16c-.43,0-.85,0-1.25,0-1.37,0-2.81.16-4.41.34-2.29.27-4.6.66-6.83,1l-2,.33-.67.11a28.83,28.83,0,0,1-4.35.5.75.75,0,0,0-.71,0l0,0a10.21,10.21,0,0,1-1.24-.12,9,9,0,0,1-5-2.23l2.46-.12,4.51-.2c3.7-.16,7.53-.32,11.3-.62,2.87-.22,5.37-.52,7.64-.92,1.26-.23,2.38-.46,3.41-.72l.14,0c.3,0,.52.65.55,1.21A1.49,1.49,0,0,1,463.45,585.12Zm.41-4.3v0a1.82,1.82,0,0,1-.07.25.55.55,0,0,1-.22.26l-.16-.05a1,1,0,0,0-.91.34l-.05.09c-1,.25-2.08.47-3.23.68-2.1.37-4.42.66-7.1.88-3.49.28-7.05.45-10.5.62-1.34.06-2.69.12-4,.2l-5,.25-6.17.3a30.06,30.06,0,0,1-3.15,0,6.93,6.93,0,0,1-3.05-.76,7.65,7.65,0,0,1-1.76-1.49,10.77,10.77,0,0,1-1.53-2.12c-.11-.22-.23-.48-.33-.73a16.78,16.78,0,0,0,4.67.6c.49,0,1,0,1.39,0,5.11-.25,10.31-.8,15.34-1.35,2.34-.25,4.68-.5,7-.72l10.76-1,.05.11.09-.12.4,0a.85.85,0,0,0,.63-.39.81.81,0,0,0,.07-.22c3,0,6.46.65,6.84,3.59A3.19,3.19,0,0,1,463.86,580.82Zm105.25-97A148.57,148.57,0,0,0,578,503.14c1.18,2.19,2.47,4.52,3.91,7a.61.61,0,0,0,.06.54,10.58,10.58,0,0,1,2.06,6.87,22,22,0,0,1-.62,3.69c-.34,1.37-.65,2.61-1,3.81-1.79,5.43-5.46,10.06-8.76,14A115.31,115.31,0,0,1,552,558.81a127.47,127.47,0,0,1-54.45,21.85,116.13,116.13,0,0,1-27.12.88,98.69,98.69,0,0,0,20.84-2.24,42.46,42.46,0,0,0,9.49-3.62,76.86,76.86,0,0,0,9.74-5.95,50.94,50.94,0,0,0,8.6-7.43.75.75,0,0,0-.07-1.07.71.71,0,0,0-1,0,50.46,50.46,0,0,1-7.34,6.46,76.71,76.71,0,0,1-9.33,5.94,42.27,42.27,0,0,1-9.21,3.87,73.52,73.52,0,0,1-12.49,2.1c-5,.45-10,.55-14.37.57a5,5,0,0,0-2.67-4.07,12.48,12.48,0,0,0-6.08-1.08c-2.8-5.29-9.54-6.16-14.86-5.92-1.3.05-2.66.19-4.1.34-5.86.6-12.49,1.28-16.28-3.65a1,1,0,0,0-.25-.2l.88,0c4-.18,4.86-2,4.88-3.42,0-2.69-2.65-4.66-4.41-6a37.08,37.08,0,0,0-7.37-4.11l-.11,0c-2.22-1-4.52-2-6.16-3.76s-2.39-4.19-3.14-6.54c-.14-.43-.28-.86-.42-1.27-4.42-13.16-6.59-23.91-6.83-33.84a91.46,91.46,0,0,1,6.09-33.92,116.3,116.3,0,0,1,16.39-29.81c.8-1.05,1.66-2.14,2.55-3.23a9,9,0,0,0,2.24.63,28.47,28.47,0,0,0,8-.29l1.58-.2c8.51-1,17.58-2,26.53-1.75,3.44.09,6.9.49,10.25.87l2.37.26c3.43.37,7.39.52,10.83-1.22a20.77,20.77,0,0,0,2.23-1.37,17,17,0,0,1,2.62-1.53,9.46,9.46,0,0,1,6.08-.32,39.53,39.53,0,0,1,8.75,3.73c.91.47,1.8.94,2.7,1.38A499.34,499.34,0,0,0,554.32,460c3.49,1.3,6.89,2.52,10.22,3.69A73.26,73.26,0,0,0,569.11,483.87ZM446.69,428.73a29.77,29.77,0,0,0-13.09,1.57,32.33,32.33,0,0,0-5.93,2.83l-.24.15c-1.78,1.09-3.62,2.21-5.7,2.13a3.49,3.49,0,0,1-2.68-1.21,2.55,2.55,0,0,1-.49-2.46A9.39,9.39,0,0,0,421,431c2.46-1.08,4.88-2.36,7.21-3.6a65.35,65.35,0,0,1,11.59-5.23,26,26,0,0,1,5.57-1c.87-.05,1.77,0,2.64,0a24.63,24.63,0,0,0,4.1-.19.67.67,0,0,0-.19-1.32,28.61,28.61,0,0,1-3.81.14c-.64,0-1.27,0-1.91,0a25.28,25.28,0,0,0-4.88.62,42.18,42.18,0,0,0-9.12,3.45c-1.54.75-3.07,1.57-4.56,2.35s-2.84,1.51-4.28,2.22c-.74.37-1.48.72-2.22,1.06l-.24.11a11.47,11.47,0,0,1-1.76.69c-.38.1-2.32.56-2.64-.58-.14-.53.18-1.15,1-1.9a18.28,18.28,0,0,1,1.54-1.25l.52-.4c1.52-1.18,3.05-2.36,4.56-3.56l0,0a10.82,10.82,0,0,0,3.18-1c.59-.29,1.17-.59,1.75-.89s1.45-.76,2.19-1.1a48.56,48.56,0,0,1,17.37-4.3c.74,0,1.48-.06,2.22-.08a.7.7,0,0,0,0-1.39,47.24,47.24,0,0,0-12.07,1.58,52.37,52.37,0,0,0-11.26,4.47c-1.43.74-3.55,1.85-5.3,1.14.06-1.79,2-2.63,3.69-3.38l.83-.37a26.88,26.88,0,0,0,5.36-3.7c1-.77,1.93-1.57,3-2.27a24,24,0,0,1,10.17-3.51c2.76-.42,5.59-.74,8.32-1.05l3.74-.44,8.09-1,5.88-.73a.63.63,0,0,0,.47-.94.55.55,0,0,0-.42-.43,62.25,62.25,0,0,1-8.33-2.35c-1.17-.43-2.35-.9-3.5-1.42l-.79-.33a11.83,11.83,0,0,1-2.14-1.05c-.4-.28-.23-.91,0-1.27s1-.37,1.65-.35h.51l5-.11c.86,0,1.71,0,2.57-.06,2.4-.07,4.87-.13,7.3-.1a29.78,29.78,0,0,1,9.08,1.32,32.38,32.38,0,0,1,6.79,3.27c2.66,1.64,5.2,3.55,7.66,5.41,1.6,1.21,3.26,2.46,4.94,3.63a47,47,0,0,0,6.7,4,40.57,40.57,0,0,0,8.56,2.79c2.39.54,4.83,1,7.27,1.4a51.25,51.25,0,0,1,2.64,11.05,27.94,27.94,0,0,1-.88,10.18,45.25,45.25,0,0,1-2.35,6.45.65.65,0,0,0,0,.51q-5.42-2.44-10.8-5c-2.1-1-4.18-2-6.26-3.08-1.52-.75-3-1.51-4.57-2.25-3.1-1.52-6.72-3.09-10.44-2.52a13.94,13.94,0,0,0-5.24,2.36,15.71,15.71,0,0,1-4.24,2.11c-3.28.85-6.76.39-10.13-.05l-1.08-.15a116.79,116.79,0,0,0-25.47-.07c-4.19.37-8.3.86-12.86,1.42l-.38.05c-2.65.32-5.4.66-7.93-.13-1.3-.41-2-1.08-2.11-2a9.6,9.6,0,0,0,3.63-1.09c.71-.36,1.4-.78,2.06-1.19l1-.62a29,29,0,0,1,9.64-3.49,30.38,30.38,0,0,1,7.87-.29.6.6,0,0,0,.66-.55A.67.67,0,0,0,446.69,428.73Zm192.47,29.46c0,3.11.05,6.05-1,9-1.3,3.61-3.69,6.3-6.58,7.39s-6.31.75-9.6.43l-2.26-.21c-3.51-.26-8.14-.63-12.74-1.22a146.62,146.62,0,0,1-24.85-5.68c-8.31-2.55-15.93-5.08-23.3-7.74-11.31-4.08-22.73-8.71-34.06-13.79a.64.64,0,0,0,.32-.31h0a38.17,38.17,0,0,0,3.42-11.31,31.3,31.3,0,0,0-.69-10.65c-.4-1.81-.93-3.71-1.68-6,2.21.35,4.41.68,6.58,1l4,.61c7.28,1.11,13.8,2.05,19.92,2.86l2.53.34c5.77.77,11.74,1.57,17.63,2.09a84,84,0,0,0,10.14.27l2.65-.11c2.42-.1,4.92-.21,7.38-.17,1.3,0,2.61.06,3.91.14a.88.88,0,0,0,.71.39h0a.8.8,0,0,0,.58-.31,90.6,90.6,0,0,1,14.12,2.11c1.54.36,3.13.77,4.72,1.23l.21,0a.74.74,0,0,0,.19-1.45,92.78,92.78,0,0,0-19.12-3.41c-.28-5.82-.66-11.87-1.14-18-.55-7.19-1.18-13.17-2-18.83-.67-4.77-1.44-9.19-2.34-13.39.06-.22.12-.43.17-.64a.79.79,0,0,0-.22-.75.83.83,0,0,0-.29-.16q-.4-1.81-.84-3.57a123.22,123.22,0,0,0-5.79-17.61,93.48,93.48,0,0,0-8.86-16.33q-.65-1-1.32-1.89a.61.61,0,0,0-.86-.14.57.57,0,0,0-.14.81h0a94.34,94.34,0,0,1,8.91,16.07,121.57,121.57,0,0,1,6,17.36q.89,3.36,1.64,6.91a35.7,35.7,0,0,1-3.9,8.56,110.9,110.9,0,0,1-6.46,9.49l-.94,1.27c-4.08,5.52-8.31,11.22-10.89,17.79a34.85,34.85,0,0,0-2.45,12.23c-2.36-.28-4.71-.59-7-.9l-3.59-.47c-7.66-1-14.54-1.95-21-2.92l-2.81-.42c-5.78-.85-11.76-1.74-17.58-2.87a39.88,39.88,0,0,1-9.2-2.81,45.6,45.6,0,0,1-6.79-4c-1.62-1.13-3.23-2.34-4.78-3.51a91,91,0,0,0-8.4-5.85,31.74,31.74,0,0,0-7.05-3.17,32.35,32.35,0,0,0-9.49-1.18c-2.46,0-5,.06-7.39.13l-2.85.07-1.55,0-3.62.09a2.07,2.07,0,0,0-2.31,1.49c-.47,1.5.23,2.14.69,2.38,1,.54,2.09,1,3.14,1.46a57.35,57.35,0,0,0,7.32,2.6c.65.18,1.33.35,2,.52l-3.67.43q-6.66.75-13.3,1.53l-1.18.13a16.91,16.91,0,0,0,2.43-4.37,28.91,28.91,0,0,0,1.76-6.63,61,61,0,0,0,.51-7.73,28.42,28.42,0,0,0-1-8.52,29.32,29.32,0,0,0-1.58-4,31,31,0,0,1-1.52-3.84,27,27,0,0,1-1.06-7.45,29.3,29.3,0,0,1,3.77-14.73,58.87,58.87,0,0,1,4.6-6.7.62.62,0,0,0,.38-.33c.06-.12.11-.25.17-.38l1.08-1.37c1-1.31,2.09-2.67,3.09-4,.4-.54.78-1.08,1.15-1.63a.72.72,0,0,0-.2-1,.79.79,0,0,0-1.12.19c-.67.94-1.37,1.86-2.07,2.78a40.13,40.13,0,0,0,1.36-16,.77.77,0,0,0-.85-.67.68.68,0,0,0-.61.76,40.73,40.73,0,0,1-1.42,16.32c-.3,1-.66,1.93-1,2.87-1.68,2.14-3.36,4.35-4.84,6.66a31.76,31.76,0,0,0-3.44,7,32,32,0,0,0-1.13,15.42,23.79,23.79,0,0,0,1,3.75c.36,1,.83,2,1.27,3l.4.88a22.81,22.81,0,0,1,2,8.13,62.5,62.5,0,0,1-.19,8.47,28.45,28.45,0,0,1-1.17,6.35,18.78,18.78,0,0,1-2.75,5.9,9.38,9.38,0,0,1-.94,1.06s0,.07-.07.1c-4.86.55-9.8,1.29-13.94,4.11-1.06.73-2.06,1.54-3,2.33a36.28,36.28,0,0,1-3.8,2.82,17.82,17.82,0,0,1-2.1,1,13.18,13.18,0,0,0-3.14,1.77,3.86,3.86,0,0,0-1.38,2.2l-.25-.14.21.37v0a3.48,3.48,0,0,0,0,.79,1,1,0,0,0,.64.94,4.4,4.4,0,0,0,.5.21l.13.24-1.11.84L419,424.81l-.4.3-1.6,1.24a5.79,5.79,0,0,0-1.68,1.92,2.49,2.49,0,0,0,0,2.13,2.38,2.38,0,0,0,1.59,1.28l.32.06a4.14,4.14,0,0,0,2.31,4.46,5.2,5.2,0,0,0,1.49.45,3.2,3.2,0,0,0,1.31,2.45,116.67,116.67,0,0,0-17,28.16,98.43,98.43,0,0,0-8.08,32.66c-.13,2.13-.16,4.29-.12,6.48a7.22,7.22,0,0,0-3.57-.8h0a7.47,7.47,0,0,0-3.38.7l.15-3.54.05-1.12c.56-13.2,1.55-28.7,4.69-43.63,4-18.82,11.84-36.66,19.46-53.91,3.06-6.93,6.22-14.09,9.09-21.22a206.92,206.92,0,0,0,11.57-39l.6-3.16c2.23-11.92,4.53-24.25,10.84-34.84a42.63,42.63,0,0,1,11.58-13c4.46-3.21,9.77-5.17,17.22-6.37,1.21-.19,2.45-.36,3.69-.54,5.05-.7,10.27-1.43,14.84-3.81a25.24,25.24,0,0,0,3.81-2.44,38.89,38.89,0,0,0,9.52,9,31.31,31.31,0,0,0,12.67,5,24.72,24.72,0,0,0,3.43.24A25.78,25.78,0,0,0,532.9,292a41.16,41.16,0,0,0,11.8-7.35,42.64,42.64,0,0,0,8.76-10.37c.26-.45.51-.9.75-1.36a1.41,1.41,0,0,0,.06-.22c.6-.95,1.22-1.93,1.75-3a25.92,25.92,0,0,0,1.87-4.71,65.36,65.36,0,0,0,7.31,4.87,55.4,55.4,0,0,0,13.8,5.67c.61.16,1.22.3,1.84.44H581a.67.67,0,0,0,.5-.22c2.18.38,4.52.67,7.09.88l3.09.22a90.64,90.64,0,0,1,11.68,1.35c10.54,2.18,18.7,6.1,24.24,11.67,5.76,5.79,8.86,13.92,9.76,25.6.33,4.28.37,8.65.42,12.87l.65,54c0,.82,0,1.64,0,2.46a.79.79,0,0,0-.07.32q0,7.23,0,14.48,0,6.63.05,13.24t.12,13q.09,7,.24,13.92c.05,2.51.11,5,.17,7.52,0,.76,0,1.51,0,2.27,0,1.95.08,4,.18,5.93l0,.86c0,.28,0,.56,0,.84a.61.61,0,0,0-.14.4ZM571.94,423c.23-6.79,2.63-13.63,7.33-20.91,1.87-2.9,4-5.72,6-8.44,2.35-3.16,4.78-6.43,6.89-9.85a47.26,47.26,0,0,0,3.74-7.28c.51,2.66,1,5.41,1.42,8.29.84,5.64,1.52,11.78,2.09,18.76.49,5.94.84,11.82,1.23,18.82,0,.4,0,.79.07,1.19-3-.16-6-.17-9.35,0l-1.41.06c-3,.13-6,.26-9,.13S574.93,423.37,571.94,423Z"/><path class="cls-1" d="M447.87,592.13a14.49,14.49,0,0,1-7.73-2,14.37,14.37,0,0,1-2.89-.35,9.74,9.74,0,0,1-6-3.66.31.31,0,0,1,0-.1l-3,.15-.9,0H427c-.87.06-1.74.11-2.61.11a12.45,12.45,0,0,1-3.73-.49,8.55,8.55,0,0,1-4.14-3.2,8,8,0,0,1-1.7-3.46,8.6,8.6,0,0,1-1-.54,27.2,27.2,0,0,1-5.6-5.12l-1.1-1.19a87.09,87.09,0,0,1-11.63-14.91,52.16,52.16,0,0,1-6.71-18.9,113.58,113.58,0,0,1-.84-20.25c.21-8.09.48-15.25.82-21.87.61-12.05,1.79-27.87,5.5-43.28,4.17-17.29,11.45-33.73,18.5-49.63,3.8-8.56,7.69-17.36,11.06-26.16a198.54,198.54,0,0,0,6.42-19.5c1.59-6,2.75-12.13,3.88-18.1l.44-2.37c2.37-12.49,5.33-25.57,13-36.26a41,41,0,0,1,12-11.34c5.67-3.4,12.13-4.57,18.25-5.47l1-.14c6-.88,12.11-1.78,17.08-5.32,4.23-3,8.5-8.31,8-14.23a15.28,15.28,0,0,1-5.49,2.56,10.93,10.93,0,0,1-6.26-.63,49.92,49.92,0,0,1-10.66-5.71c-3-2-6.22-4.39-9.7-7.22a90.83,90.83,0,0,1-9.65-9,103.66,103.66,0,0,1-8.54-10.71A163,163,0,0,1,440,209.82a.84.84,0,0,1,.12-.92.72.72,0,0,1,.13-.38c.1-.15.19-.3.28-.46l.4-.65.11.76a2.55,2.55,0,0,0,.19.55,2.32,2.32,0,0,0,.17.32c.1.12.2.25.31.36l0,.07,1.29,2.56a163.66,163.66,0,0,0,13.73,22.89,96.07,96.07,0,0,0,8.72,10.3,98.26,98.26,0,0,0,9.07,8,110.78,110.78,0,0,0,9.92,7.1,37.44,37.44,0,0,0,9.91,4.76c4.44,1.18,8.64-2.16,11.42-4.76a61.35,61.35,0,0,0,8.83-10.82c1.35-2,2.64-4.05,3.79-5.87l1.32-2.07.06-.09c.88-1.37,1.79-2.79,2.64-4.21,1.78-2.94,3.7-6.37,4.16-10h0l0-.5a7.61,7.61,0,0,0,.1-1l0-.26H527a3.88,3.88,0,0,0,.48,0,1.69,1.69,0,0,0,.48-.16l.11-.05.3-.14.08.32-.22.17h0l.24-.08c0,.11.08.22.13.33l0,.13a.84.84,0,0,0,.08.19l0,.07v.09a15.7,15.7,0,0,1-.27,2.34c-.89,4.43-3.36,8.31-5.75,12.07l-.24.36-1.24,2-.33.53c-2.08,3.29-4.22,6.69-6.54,9.9a52.73,52.73,0,0,1-8.7,9.69,13.93,13.93,0,0,1-.7,7.36,20.91,20.91,0,0,1-5.76,8.16c.19.24.37.48.56.71a37.07,37.07,0,0,0,9.9,8.49,28,28,0,0,0,12.12,3.92,24.41,24.41,0,0,0,12-2.4A40.66,40.66,0,0,0,544.73,282a39.65,39.65,0,0,0,7.79-10,1,1,0,0,1,.62-.51c.55-1,1-1.72,1.32-2.43a33.86,33.86,0,0,0,1.91-4.85c-1.22-1-2.4-2-3.49-3A65.19,65.19,0,0,1,542.71,250a44.89,44.89,0,0,1-2.58-4.26l0,0a.73.73,0,0,1-.21-.43,60.07,60.07,0,0,1-3-6.87c-.73-2-1.42-4-2.09-6-.42-1.22-.82-2.4-1.23-3.57-.21-.6-.43-1.2-.65-1.81,0,0-1.7-4.75-1.5-5.13l.06-.11.13,0s.1-.09.16-.21a.8.8,0,0,1,.56-.49l.63-.09-.29.42c.15.51,1,2.76,2.43,6.71l.21.58c.41,1.14.82,2.28,1.22,3.42.79,2.28,1.61,4.64,2.52,6.94,3.15,8,8.53,15.17,16.44,21.94a66.9,66.9,0,0,0,12.11,8.33,53.64,53.64,0,0,0,13,4.91,114.76,114.76,0,0,0,12.23,1.22h.11a75.56,75.56,0,0,1,14.48,2.09C618,280.29,626,284.89,631,291.19c6.46,8.09,7.78,18.65,8.21,26.94.21,4.12.25,8.27.28,12.29v1l0,2.51.22,17.55q.06,5.22.13,10.44c.1,7.82.2,15.46.27,23a1,1,0,0,1,0,.27v16.16q0,6.62,0,13.22v1c0,4,0,8,.06,12.06,0,4.68.09,9.35.14,14l0,3.62q.07,5.94.12,11.89a.9.9,0,0,1,.16.5c0,.47,0,.95,0,1.42h0c0,1.15.07,2.35,0,3.54-.41,6.34-4.41,13.23-11.28,14.14a17.32,17.32,0,0,1-2.36.14c-1.11,0-2.21-.07-3.28-.15l-1.29-.09c-1.92-.12-3.82-.25-5.72-.39-5.21-.39-9.18-.81-12.87-1.35-8.28-1.22-16.19-3.42-25.53-6.35-3.9-1.23-7.81-2.51-11.93-3.93a64.48,64.48,0,0,0,1.7,10.14,104.06,104.06,0,0,0,7.19,19.4c2.51,5.34,5.37,10.62,8.13,15.72l1.47,2.73a.83.83,0,0,1,0,.78l.05.12a14.07,14.07,0,0,1,.08,7.11,35.43,35.43,0,0,1-2.43,7.9c-2.4,5.2-6.18,9.69-9.54,13.5a118.06,118.06,0,0,1-22.59,19.73,129.14,129.14,0,0,1-56.23,21,114.1,114.1,0,0,1-29.09-.13,4.49,4.49,0,0,1,.38,1.35,3,3,0,0,1-1.62,3.35,7.39,7.39,0,0,1-3.45.54.75.75,0,0,0-.07.12,5,5,0,0,1-1.88,2,9.28,9.28,0,0,1-2.08.75l-.2.06c-.82.22-1.63.42-2.41.59a31.26,31.26,0,0,1-5,.7Zm-16.33-6.65.06.2.07.17a9.19,9.19,0,0,0,5.7,3.42,14,14,0,0,0,2.85.34h.08l.06,0a14.42,14.42,0,0,0,8.54,1.9,30.28,30.28,0,0,0,4.94-.69c.76-.17,1.56-.36,2.37-.58l.19,0a9.73,9.73,0,0,0,2-.71,4.75,4.75,0,0,0,1.67-1.83l.06-.12.07-.14.08-.14h.16a7.34,7.34,0,0,0,3.38-.49,2.5,2.5,0,0,0,1.31-2.78,4,4,0,0,0-.56-1.62l-.34-.51.61.08a113.12,113.12,0,0,0,29.49.21,126.73,126.73,0,0,0,29.16-7.11,128.21,128.21,0,0,0,26.83-13.76,117.25,117.25,0,0,0,22.48-19.64c3.33-3.77,7.08-8.23,9.45-13.36a35,35,0,0,0,2.39-7.78,13.54,13.54,0,0,0-.07-6.83.49.49,0,0,0,0-.11l-.09-.26.08-.11a.29.29,0,0,0,0-.33l-1.47-2.71c-2.77-5.13-5.63-10.42-8.15-15.76a105.43,105.43,0,0,1-7.23-19.5,64.31,64.31,0,0,1-1.74-10.66l0-.42.39.14c4.27,1.47,8.29,2.8,12.32,4.06,9.31,2.93,17.2,5.12,25.44,6.34,3.68.54,7.63.95,12.83,1.34,1.9.14,3.79.27,5.69.39l1.32.09c1.06.08,2.15.15,3.24.15a16,16,0,0,0,2.28-.14c6.58-.86,10.42-7.51,10.81-13.62.07-1.17,0-2.35,0-3.5h0c0-.48,0-1,0-1.44a.37.37,0,0,0-.1-.23l-.07-.08v-.1q0-6-.11-12l0-3.63q-.09-7-.14-14c0-4,0-8.05-.06-12.07v-1q0-6.62,0-13.22V385.18a1.31,1.31,0,0,0,0-.15l0-.08c-.06-7.53-.16-15.19-.26-23-.05-3.48-.09-7-.14-10.44L639,333.94l0-2.52v-1c0-4-.07-8.15-.28-12.26-.43-8.21-1.73-18.66-8.09-26.62-5-6.21-12.81-10.74-23.33-13.48A75.46,75.46,0,0,0,592.85,276h-.1a114.46,114.46,0,0,1-12.31-1.23,54.54,54.54,0,0,1-13.12-5,67.5,67.5,0,0,1-12.21-8.4c-8-6.83-13.41-14.08-16.6-22.15-.91-2.31-1.73-4.68-2.53-7-.39-1.14-.79-2.28-1.2-3.41l-.22-.58c-1.48-4-2.1-5.71-2.34-6.45a1,1,0,0,1-.28.36c.16.79,1.32,4.22,1.48,4.66.22.6.44,1.2.65,1.81.41,1.17.82,2.35,1.22,3.53.68,2,1.37,4,2.1,6a59.72,59.72,0,0,0,3,6.85l0,.12a.19.19,0,0,0,0,.13l.1.1a43.83,43.83,0,0,0,2.57,4.27,64.91,64.91,0,0,0,10.09,11.15c1.14,1,2.36,2.06,3.64,3.07l.18.15-.17.29a32.76,32.76,0,0,1-1.95,4.95c-.38.74-.81,1.53-1.39,2.56l-.06.11-.13,0a.55.55,0,0,0-.37.26,39.91,39.91,0,0,1-7.89,10.15A41.92,41.92,0,0,1,534.06,290a25,25,0,0,1-12.27,2.44,28.52,28.52,0,0,1-12.36-4,37.45,37.45,0,0,1-10-8.61c-.22-.26-.43-.54-.64-.81l-.25-.32.2-.17a20.59,20.59,0,0,0,5.8-8.11,13.43,13.43,0,0,0,.64-7.23l0-.16.12-.1a51.67,51.67,0,0,0,8.73-9.69c2.31-3.2,4.45-6.59,6.52-9.88l.33-.53,1.25-2,.23-.37c2.36-3.71,4.81-7.55,5.67-11.88a13.58,13.58,0,0,0,.26-2.18,1.17,1.17,0,0,1-.09-.24l0-.08a1.34,1.34,0,0,1-.07-.18,2.22,2.22,0,0,1-.46.12l-.3,0a3.13,3.13,0,0,1,0,.42l0,.3c-.35,4-2.4,7.64-4.29,10.77-.86,1.43-1.77,2.85-2.65,4.23l0,.09q-.68,1-1.32,2.07c-1.15,1.81-2.45,3.87-3.8,5.88a61.94,61.94,0,0,1-8.91,10.91c-2.88,2.7-7.24,6.14-11.94,4.89a37.49,37.49,0,0,1-10.06-4.82,112,112,0,0,1-10-7.14,98,98,0,0,1-9.12-8.07,97,97,0,0,1-8.77-10.36,164.43,164.43,0,0,1-13.78-23c-.43-.84-.85-1.68-1.27-2.52a3.19,3.19,0,0,1-.33-.4,2.2,2.2,0,0,1-.23-.4l0-.1a.16.16,0,0,0,0,.12v.14l-.1.09a.33.33,0,0,0-.09.38,162.6,162.6,0,0,0,13.53,24,100.21,100.21,0,0,0,8.5,10.65,89.74,89.74,0,0,0,9.59,9c3.47,2.82,6.63,5.18,9.66,7.2a49.88,49.88,0,0,0,10.53,5.64,10.38,10.38,0,0,0,6,.61,15.15,15.15,0,0,0,5.67-2.75l.38-.27.05.46c.78,6.36-3.74,12-8.21,15.22-5.08,3.62-11.3,4.53-17.31,5.41l-1,.14c-6.08.9-12.47,2.06-18.06,5.41A40.33,40.33,0,0,0,448,301.46c-7.63,10.6-10.57,23.62-12.93,36l-.44,2.38c-1.13,6-2.29,12.14-3.89,18.13a196.14,196.14,0,0,1-6.44,19.55c-3.37,8.82-7.27,17.63-11,26.14-7.06,15.93-14.34,32.35-18.49,49.59-3.7,15.37-4.88,31.15-5.49,43.18-.33,6.62-.6,13.77-.82,21.85a113.27,113.27,0,0,0,.83,20.15,51.57,51.57,0,0,0,6.65,18.7A86.35,86.35,0,0,0,407.52,572c.37.39.73.79,1.1,1.19a27.13,27.13,0,0,0,5.49,5,9.91,9.91,0,0,0,1.1.58l.14.06,0,.16a7.12,7.12,0,0,0,1.61,3.33,7.94,7.94,0,0,0,3.87,3,11.59,11.59,0,0,0,3.56.47c.85,0,1.72-.06,2.56-.11h.23l.92-.05Zm16.32,4.92a15.65,15.65,0,0,1-3.31-.34c-.29-.06-.56-.14-.84-.22l-1.17-.33,2.56-.42,2.81-.47.11,0c2.23-.37,4.53-.75,6.81-1,1.25-.14,2.41-.23,3.54-.28l.57,0-.39.54-.11.15h0a3.36,3.36,0,0,1-1.65.89,40,40,0,0,1-4,1A25.74,25.74,0,0,1,447.86,590.4Zm-2.66-.77a20.78,20.78,0,0,0,7.47-.3,39.48,39.48,0,0,0,4-1,4.6,4.6,0,0,0,1.08-.44c-.9.05-1.83.12-2.82.23-2.26.25-4.56.64-6.78,1l-.11,0Zm-4.76-1.33-.06,0a.48.48,0,0,0-.46,0l-.07,0-.1,0a9,9,0,0,1-1.27-.13,9.4,9.4,0,0,1-5.15-2.31l-.42-.44,3.07-.14c1.5-.08,3-.14,4.51-.2,3.7-.16,7.53-.33,11.28-.62,2.87-.23,5.37-.53,7.63-.93,1.22-.21,2.33-.44,3.38-.7l.08,0,.08,0,.1,0c.55.1.75,1,.78,1.47a1.79,1.79,0,0,1-.13.93h0c-.14.26-.47.44-1,.59A10.2,10.2,0,0,1,460,586c-.42,0-.84,0-1.24,0-1.36,0-2.79.15-4.37.34-2.31.27-4.6.65-6.82,1l-2.68.44a28.81,28.81,0,0,1-4.39.5Zm-.3-.65a1,1,0,0,1,.44.1,28.62,28.62,0,0,0,4.24-.49l2.68-.45c2.22-.37,4.53-.76,6.84-1,1.6-.19,3.05-.3,4.43-.34.41,0,.84,0,1.26,0a9.26,9.26,0,0,0,2.49-.15c.56-.14.67-.29.68-.31h0a1.2,1.2,0,0,0,.07-.63,1.42,1.42,0,0,0-.33-1l-.1,0c-1,.26-2.14.48-3.35.7-2.28.4-4.79.7-7.67.93-3.77.29-7.6.46-11.31.62l-4.51.2-1.79.08a9.66,9.66,0,0,0,4.36,1.72,9,9,0,0,0,1.15.11A1.25,1.25,0,0,1,440.14,587.65ZM424.32,585l-1.08,0a7.2,7.2,0,0,1-3.17-.79,8,8,0,0,1-1.82-1.55,10.61,10.61,0,0,1-1.57-2.17,7.59,7.59,0,0,1-.35-.77l-.2-.52.54.16a16,16,0,0,0,4.59.59c.48,0,.95,0,1.37,0,5.11-.25,10.31-.81,15.33-1.35l.28,0c2.25-.24,4.5-.48,6.74-.69l11.29-1.07a.57.57,0,0,0,.42-.26s0-.07,0-.12l0-.22H457c4.32,0,6.77,1.32,7.1,3.83a3.28,3.28,0,0,1,0,.89v0a2.45,2.45,0,0,1-.08.29.89.89,0,0,1-.32.38l-.11.08-.21-.06a.68.68,0,0,0-.69.23l-.06.08-.15.1c-1.06.26-2.12.48-3.24.68-2.12.37-4.45.66-7.12.88-3.46.28-7,.45-10.4.62l-.62,0-3.53.17-5,.25-6.16.31C425.77,585,425.05,585,424.32,585Zm-7.25-5a1.74,1.74,0,0,0,.1.19,10.12,10.12,0,0,0,1.48,2.06,7.39,7.39,0,0,0,1.7,1.44,6.53,6.53,0,0,0,2.93.72,26.89,26.89,0,0,0,3.12,0l6.16-.3,5-.25,3.54-.17.61,0c3.41-.17,6.93-.34,10.38-.62,2.66-.21,5-.5,7.07-.87,1.08-.19,2.09-.41,3.1-.65l0,0a1.25,1.25,0,0,1,1.16-.43h.05l0,0a1.06,1.06,0,0,0,0-.19l.28,0-.27,0a3,3,0,0,0,0-.74c-.35-2.71-3.61-3.32-6.36-3.35l0,.09a1.11,1.11,0,0,1-.84.51l-.29.06-.3.38-.15-.37-10.55,1c-2.24.21-4.48.45-6.73.69l-.28,0c-5,.54-10.23,1.1-15.36,1.35-.43,0-.91,0-1.4,0A17.4,17.4,0,0,1,417.07,580Zm63.12,2.23q-4.92,0-9.78-.42l0-.55A100.65,100.65,0,0,0,491.2,579a42.25,42.25,0,0,0,9.44-3.59,76.27,76.27,0,0,0,9.69-5.94,49.63,49.63,0,0,0,8.56-7.39.48.48,0,0,0,0-.68.43.43,0,0,0-.63,0,51.21,51.21,0,0,1-7.39,6.5,77.8,77.8,0,0,1-9.35,5.95,42.63,42.63,0,0,1-9.28,3.9,74,74,0,0,1-12.53,2.1c-5.14.47-10.4.55-14.4.58H465v-.26a4.69,4.69,0,0,0-2.53-3.84,12.21,12.21,0,0,0-5.94-1.06h-.17l-.09-.16c-2.74-5.19-9.46-6-14.6-5.77-1.3.06-2.65.2-4.08.35-5.93.6-12.65,1.28-16.53-3.76a.53.53,0,0,0-.16-.13l-.27-.15-.28.17a.49.49,0,0,0-.19.22.41.41,0,0,0,.07.42c4,5.26,11.29,4.92,17.75,4.2,6-.68,14.31-.92,17.38,4.74l.2.37-21.9,2.08-2.92.29-.29,0c-2.47.26-5,.52-7.57.66a16.07,16.07,0,0,1-6.78-.85L416,578l.17-.23L416,578a.51.51,0,0,0-.24-.09l-.08,0A10.29,10.29,0,0,1,413,576.2a69,69,0,0,1-6-6.12l-.67-.74a93.91,93.91,0,0,1-6.38-7.79,53,53,0,0,1-8.63-17.75c-1.88-7.34-2.06-15-2-20.87,0-5.26.23-10.51.41-14.95v-.1l.07-.07c.65-.74,1.87-1.13,3.65-1.15,1.05,0,2.94.17,3.79,1.3,0,0,0,0,.05,0l.08.07v.11a106.15,106.15,0,0,0,4.29,24.93c.75,2.6,1.61,5.34,2.63,8.37.11.32.22.64.32,1a18.26,18.26,0,0,0,3.08,6.4,16.5,16.5,0,0,0,6,3.93,43.52,43.52,0,0,1,7.08,3.73,20.43,20.43,0,0,1,3.27,2.65c.82.88,1.75,2.18,1.47,3.41-.23,1-1.16,1.62-2.76,1.79a32.71,32.71,0,0,1-3.28.14h-.88c-5.33.08-11.35-.37-15.7-4.18a11.82,11.82,0,0,1-2.37-2.83.45.45,0,0,0-.28-.21.47.47,0,0,0-.36.06.44.44,0,0,0-.21.28.46.46,0,0,0,.05.34c3.19,5.31,9.44,6.8,12.88,7.22a40.74,40.74,0,0,0,4.8.26c.74,0,1.56,0,2.56-.05h0l1.85-.07c3-.13,4.59-1.22,4.61-3.15,0-2.54-2.58-4.46-4.3-5.73a37.3,37.3,0,0,0-7.32-4.08l-.1,0c-2.25-1-4.57-2-6.25-3.83s-2.45-4.26-3.21-6.64c-.14-.43-.27-.85-.41-1.27-4.43-13.18-6.61-24-6.84-33.91a91.57,91.57,0,0,1,6.1-34,116.21,116.21,0,0,1,16.43-29.88c.78-1,1.64-2.12,2.56-3.25l.13-.16.19.09a8.79,8.79,0,0,0,2.17.6,27.93,27.93,0,0,0,8-.28l1.58-.2c8.53-1,17.61-2,26.58-1.75,3.45.09,6.91.48,10.26.86l.24,0,2.14.24c3.39.37,7.3.51,10.67-1.2a19.41,19.41,0,0,0,2.19-1.34,17.84,17.84,0,0,1,2.68-1.57,9.71,9.71,0,0,1,6.25-.32,39.69,39.69,0,0,1,8.82,3.74c.9.48,1.8.95,2.69,1.39a500.75,500.75,0,0,0,46.7,20.07c3.42,1.28,6.86,2.52,10.21,3.69l.17.06v.18a72.86,72.86,0,0,0,4.56,20.13A149.27,149.27,0,0,0,578.24,503c1.17,2.18,2.45,4.48,3.91,7l.07.12-.05.12a.29.29,0,0,0,0,.28,10.9,10.9,0,0,1,2.11,7,21.4,21.4,0,0,1-.64,3.74c-.35,1.45-.65,2.64-1,3.84-1.8,5.46-5.49,10.12-8.81,14.06A115.17,115.17,0,0,1,552.16,559a127.71,127.71,0,0,1-54.57,21.91A118.9,118.9,0,0,1,480.19,582.24Zm-4-.63a116.1,116.1,0,0,0,21.33-1.22,127.27,127.27,0,0,0,54.33-21.81,114.42,114.42,0,0,0,21.56-19.7c3.29-3.89,6.94-8.5,8.7-13.87.39-1.18.69-2.37,1-3.8a21.55,21.55,0,0,0,.62-3.64,10.31,10.31,0,0,0-2-6.69.82.82,0,0,1-.13-.66c-1.44-2.52-2.71-4.79-3.87-7a150.32,150.32,0,0,1-8.9-19.3,73.67,73.67,0,0,1-4.58-20.1c-3.29-1.16-6.67-2.38-10-3.63a500.15,500.15,0,0,1-46.74-20.1c-.9-.44-1.8-.91-2.71-1.39a39.18,39.18,0,0,0-8.69-3.7,9.12,9.12,0,0,0-5.9.3,16.91,16.91,0,0,0-2.57,1.51,22.56,22.56,0,0,1-2.27,1.39c-3.5,1.77-7.51,1.62-11,1.24l-2.15-.23-.22,0c-3.35-.38-6.8-.77-10.23-.86-8.94-.23-18,.74-26.49,1.75l-1.54.19a29,29,0,0,1-8.16.29,9.3,9.3,0,0,1-2.11-.57c-.86,1.06-1.67,2.09-2.41,3.07a115.58,115.58,0,0,0-16.35,29.74,91.12,91.12,0,0,0-6.07,33.82c.23,9.89,2.4,20.61,6.81,33.75.14.41.28.84.42,1.27.74,2.33,1.51,4.73,3.09,6.44s3.87,2.73,6.06,3.7l.1,0a37.12,37.12,0,0,1,7.43,4.14c1.81,1.34,4.55,3.36,4.52,6.18,0,1.58-.92,3.51-5.14,3.69h-.25c3.72,4.56,10.16,3.91,15.86,3.33,1.44-.15,2.8-.29,4.11-.35,5.25-.24,12.11.6,15,5.92a12.5,12.5,0,0,1,6.05,1.12,5.29,5.29,0,0,1,2.8,4c4,0,9.08-.11,14.09-.57a73,73,0,0,0,12.44-2.08,42.26,42.26,0,0,0,9.15-3.85,76.87,76.87,0,0,0,9.29-5.92,50.64,50.64,0,0,0,7.31-6.43,1,1,0,0,1,1.41-.06,1,1,0,0,1,.09,1.46,51.48,51.48,0,0,1-8.65,7.47,76.3,76.3,0,0,1-9.77,6,42.37,42.37,0,0,1-9.56,3.64A88.28,88.28,0,0,1,476.18,581.61Zm-59.82-4.05a15.42,15.42,0,0,0,6.49.79c2.54-.14,5.08-.4,7.54-.66l.29,0,2.93-.29,21.06-2c-3.08-5-10.93-4.73-16.63-4.1-6.61.75-14,1.08-18.25-4.41a1,1,0,0,1-.16-.9l-2.14,0a39.89,39.89,0,0,1-4.87-.26c-3.54-.43-10-2-13.28-7.49a1,1,0,0,1-.12-.75,1,1,0,0,1,.47-.62,1,1,0,0,1,.78-.13,1,1,0,0,1,.61.47,11.35,11.35,0,0,0,2.26,2.69c4.22,3.69,10.13,4.13,15.34,4.05h.83a31.77,31.77,0,0,0,3.27-.14c1.34-.14,2.11-.6,2.28-1.36.23-1-.6-2.13-1.33-2.91a19.27,19.27,0,0,0-3.18-2.57,42,42,0,0,0-7-3.68,17,17,0,0,1-6.22-4.08,18.57,18.57,0,0,1-3.18-6.59l-.32-1c-1-3-1.89-5.79-2.64-8.4a106.67,106.67,0,0,1-4.31-24.93l0,0c-.7-.93-2.4-1.08-3.35-1.08a4.68,4.68,0,0,0-3.18.89c-.17,4.42-.36,9.62-.4,14.84-.05,5.83.13,13.45,2,20.72a52.25,52.25,0,0,0,8.54,17.57,94.39,94.39,0,0,0,6.34,7.74l.66.74a68,68,0,0,0,5.93,6.07,9.61,9.61,0,0,0,2.46,1.56.91.91,0,0,1,.48.21Zm-19-70.67-.43-.25a7,7,0,0,0-3.43-.77,7.23,7.23,0,0,0-3.27.68l-.42.22.21-5.15c.56-13.2,1.56-28.72,4.7-43.67,4-18.85,11.85-36.7,19.47-54,3.07-6.94,6.23-14.1,9.09-21.21a205.9,205.9,0,0,0,11.56-39c.19-1,.37-1.95.55-2.92l.05-.24c2.23-12,4.54-24.3,10.88-34.93A43.05,43.05,0,0,1,458,292.6c4.5-3.23,9.85-5.2,17.34-6.41,1.21-.19,2.45-.37,3.69-.54,5-.7,10.23-1.43,14.75-3.78a26.34,26.34,0,0,0,3.78-2.42l.22-.17.16.22a38.86,38.86,0,0,0,9.45,8.92A30.93,30.93,0,0,0,520,293.34a25.26,25.26,0,0,0,12.85-1.62,40.6,40.6,0,0,0,11.71-7.31,42.12,42.12,0,0,0,8.71-10.3c.26-.44.51-.89.74-1.35a.53.53,0,0,0,0-.11l0-.12c.62-1,1.21-1.94,1.73-2.94a25,25,0,0,0,1.85-4.66l.11-.39.32.24a67.66,67.66,0,0,0,7.28,4.85,55.7,55.7,0,0,0,13.74,5.65c.61.15,1.22.3,1.83.43a.39.39,0,0,0,.38-.13l.11-.11.15,0c2.22.39,4.53.68,7.06.88l3.09.23A89.33,89.33,0,0,1,603.41,278c10.59,2.18,18.79,6.13,24.38,11.74,5.81,5.83,8.93,14,9.83,25.77.33,4.28.38,8.65.42,12.87l.7,56.57,0,.06a.54.54,0,0,0-.05.21q0,7.23,0,14.48,0,6.63.05,13.24c0,4.37.07,8.75.13,13q.09,7,.23,13.91.07,3.77.18,7.52c0,.76,0,1.52,0,2.28,0,1.83.07,3.92.17,5.92l.1,1.8-.07.08a.4.4,0,0,0-.08.23v.52c0,3.14,0,6.1-1,9.13-1.32,3.69-3.78,6.44-6.74,7.55s-6.4.78-9.72.45h-.16c-.72-.07-1.42-.14-2.1-.19-3.52-.26-8.16-.63-12.75-1.22a147.32,147.32,0,0,1-24.9-5.7c-8.3-2.54-15.93-5.07-23.32-7.74-11.27-4.07-22.74-8.71-34.07-13.8l-.57-.25h0l-.3-.14c-3.7-1.67-7.34-3.36-10.81-5-2.1-1-4.22-2.06-6.27-3.08l-4.56-2.26c-3.07-1.49-6.64-3-10.28-2.49a13.74,13.74,0,0,0-5.13,2.32,15.7,15.7,0,0,1-4.32,2.14c-3.32.87-6.83.41-10.22,0l-1.09-.14a116.18,116.18,0,0,0-25.41-.08c-4.2.38-8.31.87-12.86,1.42l-.37,0c-2.69.33-5.46.67-8.05-.14-1.41-.44-2.18-1.19-2.3-2.22l0-.28.28,0a9.4,9.4,0,0,0,3.52-1.06c.71-.36,1.39-.78,2.05-1.18l1-.63A31.5,31.5,0,0,1,432,432a30.11,30.11,0,0,1,6.66-2,30.92,30.92,0,0,1,7.94-.28.35.35,0,0,0,.37-.31.39.39,0,0,0-.34-.43h0a29.23,29.23,0,0,0-13,1.55,31.48,31.48,0,0,0-5.88,2.81l-.24.15c-1.85,1.12-3.7,2.26-5.85,2.17a3.75,3.75,0,0,1-2.88-1.32,2.79,2.79,0,0,1-.53-2.72l.05-.16.17,0a9,9,0,0,0,2.32-.73c2.45-1.07,4.86-2.35,7.19-3.59a65.21,65.21,0,0,1,11.64-5.24,25.32,25.32,0,0,1,5.63-1.05c.88-.06,1.77-.05,2.63,0a23.19,23.19,0,0,0,4.08-.18.37.37,0,0,0,.3-.44.37.37,0,0,0-.41-.34,27.52,27.52,0,0,1-3.84.15h-1.91a24.49,24.49,0,0,0-4.81.62,42.12,42.12,0,0,0-9.07,3.43c-1.54.76-3.07,1.56-4.55,2.35-1.32.7-2.83,1.49-4.29,2.22-.74.36-1.48.72-2.23,1.06l-.23.11a11.68,11.68,0,0,1-1.81.7c-1.24.34-2.67.31-3-.76-.18-.64.17-1.35,1.05-2.18.49-.46,1-.87,1.56-1.27l.52-.4c1.52-1.18,3.05-2.36,4.56-3.56l.06-.06.09,0a10.36,10.36,0,0,0,3.1-1c.59-.28,1.17-.59,1.74-.89l.1-.05c.69-.35,1.39-.72,2.1-1a48.54,48.54,0,0,1,17.48-4.32q1.11-.06,2.22-.09a.42.42,0,0,0,0-.83,46,46,0,0,0-12,1.57,52.3,52.3,0,0,0-11.2,4.44c-1.46.76-3.66,1.91-5.53,1.16l-.18-.08v-.19c.06-2,2.07-2.84,3.85-3.62l.82-.37a26.51,26.51,0,0,0,5.31-3.66c.95-.78,1.94-1.58,3-2.29a24.44,24.44,0,0,1,10.29-3.56c2.77-.41,5.59-.73,8.33-1.05l3.74-.43,8.09-1,5.88-.72a.36.36,0,0,0,.31-.4.43.43,0,0,0,0-.13l0-.09a.23.23,0,0,0-.2-.21A63.29,63.29,0,0,1,462.8,401c-1.18-.43-2.36-.91-3.51-1.42-.25-.12-.52-.23-.79-.34a11.45,11.45,0,0,1-2.19-1.08c-.52-.35-.41-1.1-.1-1.63s1.2-.51,1.9-.49h.5l5-.11,2.55-.07c2.4-.06,4.88-.13,7.32-.1a30.31,30.31,0,0,1,9.17,1.34,32.47,32.47,0,0,1,6.85,3.3c2.67,1.64,5.21,3.56,7.67,5.42,1.62,1.22,3.27,2.46,4.94,3.62a45,45,0,0,0,6.66,3.94,40.26,40.26,0,0,0,8.49,2.78c2.15.47,4.45.91,7.27,1.39l.16,0,0,.16a51.1,51.1,0,0,1,2.65,11.11,28.31,28.31,0,0,1-.88,10.29,46.34,46.34,0,0,1-2.37,6.49.41.41,0,0,0,0,.29l.15.39.35-.15a.39.39,0,0,0,.18-.18,38,38,0,0,0,3.4-11.23,31.25,31.25,0,0,0-.69-10.55c-.4-1.79-.93-3.71-1.67-6l-.14-.43.44.07c2.21.36,4.41.69,6.58,1l4,.61c7.24,1.11,13.75,2,19.91,2.86l2.54.34c5.79.77,11.74,1.57,17.61,2.08A81.54,81.54,0,0,0,587,425l2.44-.09.42,0c2.35-.1,4.79-.2,7.18-.17,1.19,0,2.48.06,3.93.14h.14l.08.12a.56.56,0,0,0,.47.26.49.49,0,0,0,.41-.2l.09-.12h.15a91.73,91.73,0,0,1,14.17,2.12c1.54.36,3.13.77,4.73,1.23a.43.43,0,0,0,.55-.31.45.45,0,0,0-.31-.58A92.93,92.93,0,0,0,602.34,424l-.25,0v-.25c-.28-5.87-.66-11.93-1.13-18-.56-7.19-1.19-13.17-2-18.81-.67-4.76-1.43-9.14-2.34-13.37v-.07l.08-.32c0-.12.07-.25.1-.38a.48.48,0,0,0-.14-.47.5.5,0,0,0-.19-.11l-.15-.06,0-.14q-.4-1.81-.84-3.57a122.93,122.93,0,0,0-5.77-17.56,93.86,93.86,0,0,0-8.83-16.28q-.66-1-1.32-1.89a.32.32,0,0,0-.22-.14.35.35,0,0,0-.26.06.3.3,0,0,0-.08.43,93.58,93.58,0,0,1,8.94,16.12,120.9,120.9,0,0,1,6,17.4c.57,2.19,1.13,4.52,1.64,6.92l0,.07,0,.06a36.1,36.1,0,0,1-3.93,8.64,113.59,113.59,0,0,1-6.47,9.5L584.2,393c-4.07,5.51-8.29,11.2-10.86,17.73a34.85,34.85,0,0,0-2.42,12.13v.31l-.3,0c-2.36-.28-4.67-.58-7-.9l-3.6-.47c-7.68-1-14.57-2-21.05-2.92l-2.81-.42c-5.78-.85-11.76-1.74-17.59-2.87a39.76,39.76,0,0,1-9.26-2.83,44.94,44.94,0,0,1-6.84-4c-1.63-1.13-3.24-2.34-4.79-3.51a88.48,88.48,0,0,0-8.37-5.83,31.71,31.71,0,0,0-7-3.15,32.48,32.48,0,0,0-9.41-1.17c-2.29,0-4.64.06-6.91.12h-.47l-2.85.08-1.55,0-3.62.09c-.91,0-1.69.14-2.06,1.31s.09,1.8.56,2.05c1,.53,2.07,1,3.11,1.44a56.45,56.45,0,0,0,7.29,2.59c.65.18,1.33.36,2,.53l1.5.36-5.21.6-13.3,1.54-1.84.2.41-.52a16.83,16.83,0,0,0,2.39-4.3,28.26,28.26,0,0,0,1.74-6.57,60.47,60.47,0,0,0,.52-7.7,28.55,28.55,0,0,0-1-8.43,31.35,31.35,0,0,0-1.57-4,32.48,32.48,0,0,1-1.54-3.87,27.56,27.56,0,0,1-1.06-7.53,29.57,29.57,0,0,1,3.8-14.86,58.55,58.55,0,0,1,4.62-6.74l.06-.07.08,0a.38.38,0,0,0,.22-.19l.09-.2.07-.17.12-.17,1-1.26c1-1.32,2.1-2.67,3.09-4,.39-.53.77-1.06,1.14-1.61a.46.46,0,0,0-.12-.65.54.54,0,0,0-.75.12c-.59.83-1.24,1.71-2.07,2.79l-.91,1.18.43-1.43a39.28,39.28,0,0,0,1.61-11,41.12,41.12,0,0,0-.26-4.91.48.48,0,0,0-.55-.42.39.39,0,0,0-.36.45,41.33,41.33,0,0,1-1.43,16.44c-.27.87-.61,1.79-1.06,2.88l0,.07c-1.62,2.07-3.32,4.29-4.82,6.64a31.66,31.66,0,0,0-3.41,6.93,31.88,31.88,0,0,0-1.12,15.28,23.29,23.29,0,0,0,1,3.71c.36,1,.82,2,1.26,3l.4.88a23.22,23.22,0,0,1,2,8.24,64.66,64.66,0,0,1-.19,8.5,29.58,29.58,0,0,1-1.18,6.41,19.33,19.33,0,0,1-2.8,6,9.2,9.2,0,0,1-1,1.1l-.11.16h-.12c-5,.56-9.75,1.3-13.82,4.07-1.05.72-2,1.53-3,2.31a35.8,35.8,0,0,1-3.83,2.84,18.43,18.43,0,0,1-2.13,1.07,12.71,12.71,0,0,0-3.07,1.72,3.63,3.63,0,0,0-1.29,2l0,.13v0l0,.11a3.34,3.34,0,0,0,0,.71.72.72,0,0,0,.49.71,3.9,3.9,0,0,0,.47.2l.1,0,.3.54-1.4,1.06L419.2,425l-.4.3c-.54.41-1.07.81-1.59,1.23a5.45,5.45,0,0,0-1.61,1.83,2.2,2.2,0,0,0,0,1.89,2.08,2.08,0,0,0,1.41,1.13l.23,0,.29.05v.3a3.85,3.85,0,0,0,2.16,4.15,4.84,4.84,0,0,0,1.41.43l.22,0v.23a2.94,2.94,0,0,0,1.21,2.24l.22.17-.18.22a116.42,116.42,0,0,0-17,28.1,97.88,97.88,0,0,0-8.05,32.56c-.13,2.08-.17,4.25-.12,6.47Zm-3.88-1.57a8,8,0,0,1,3.31.62c0-2.06,0-4.09.13-6A98.76,98.76,0,0,1,405,467.15a117.48,117.48,0,0,1,16.9-28,3.44,3.44,0,0,1-1.18-2.24,5.78,5.78,0,0,1-1.35-.44A4.48,4.48,0,0,1,416.9,432l-.07,0a2.62,2.62,0,0,1-1.77-1.43,2.73,2.73,0,0,1,0-2.35,6,6,0,0,1,1.76-2c.53-.42,1.07-.83,1.61-1.24l.4-.3,1.74-1.32,1-.73-.36-.16a1.27,1.27,0,0,1-.79-1.17,4,4,0,0,1,0-.77l-.67-1.17.81.46a4.32,4.32,0,0,1,1.38-2,13.22,13.22,0,0,1,3.2-1.8,19.05,19.05,0,0,0,2.07-1,35.64,35.64,0,0,0,3.77-2.79c1-.8,2-1.61,3.05-2.34,4.13-2.82,8.95-3.58,13.95-4.15l0,0a8.92,8.92,0,0,0,.91-1,18.79,18.79,0,0,0,2.71-5.81,28.49,28.49,0,0,0,1.16-6.29A65.39,65.39,0,0,0,453,384a22.79,22.79,0,0,0-2-8l-.4-.88c-.42-.92-.91-2-1.28-3a24,24,0,0,1-1-3.79,30.67,30.67,0,0,1-.38-7.87,31.31,31.31,0,0,1,1.52-7.69,32.25,32.25,0,0,1,3.46-7.05c1.51-2.35,3.22-4.58,4.83-6.65.44-1.07.77-2,1-2.81A40.58,40.58,0,0,0,460.22,320a.94.94,0,0,1,.85-1.05,1,1,0,0,1,1.15.9,42.29,42.29,0,0,1,.28,5,39.74,39.74,0,0,1-1.26,9.72c.44-.59.83-1.12,1.19-1.63a1.08,1.08,0,0,1,1.51-.26,1,1,0,0,1,.27,1.42c-.38.55-.76,1.09-1.15,1.63-1,1.36-2.07,2.71-3.09,4l-1.09,1.39,0,.11a2.14,2.14,0,0,1-.1.22.9.9,0,0,1-.46.44,57.64,57.64,0,0,0-4.53,6.61A29.05,29.05,0,0,0,450,363.1a26.78,26.78,0,0,0,1,7.37,30.35,30.35,0,0,0,1.51,3.8,32.8,32.8,0,0,1,1.6,4.05,29.37,29.37,0,0,1,1,8.6,61.73,61.73,0,0,1-.52,7.77,29.52,29.52,0,0,1-1.77,6.7,19,19,0,0,1-2.08,3.92l.54-.06,13.3-1.54,2.19-.25-.59-.16a58.88,58.88,0,0,1-7.35-2.6c-1.06-.46-2.13-.93-3.16-1.47-.43-.23-1.37-1-.82-2.71a2.33,2.33,0,0,1,2.56-1.69l3.63-.09,1.55,0,2.84-.08H466c2.27-.07,4.62-.13,6.92-.12a29.26,29.26,0,0,1,16.68,4.39,91.65,91.65,0,0,1,8.43,5.87c1.54,1.17,3.14,2.37,4.76,3.5a46.19,46.19,0,0,0,6.76,4,38.8,38.8,0,0,0,9.14,2.77c5.82,1.14,11.79,2,17.56,2.88l2.81.42c6.48,1,13.36,1.92,21,2.91l3.59.48c2.26.3,4.47.59,6.72.86a35.47,35.47,0,0,1,2.46-12c2.6-6.6,6.83-12.32,10.93-17.86l.94-1.27a110.21,110.21,0,0,0,6.44-9.46,35.55,35.55,0,0,0,3.86-8.43c-.51-2.37-1.06-4.66-1.63-6.83a120.21,120.21,0,0,0-6-17.32,92.51,92.51,0,0,0-8.88-16,.85.85,0,0,1,.21-1.19.9.9,0,0,1,.67-.15.85.85,0,0,1,.58.36c.44.62.89,1.26,1.32,1.9a93.65,93.65,0,0,1,8.88,16.38A120.77,120.77,0,0,1,596,368.3c.29,1.13.56,2.28.82,3.44a1,1,0,0,1,.24.16,1,1,0,0,1,.3,1c0,.13-.07.27-.11.4l-.05.19c.91,4.23,1.67,8.59,2.34,13.34.79,5.66,1.42,11.65,2,18.85.46,6,.84,12,1.12,17.77a94,94,0,0,1,18.94,3.4,1,1,0,0,1-.56,1.95c-1.58-.45-3.17-.87-4.7-1.22a91.21,91.21,0,0,0-13.94-2.1,1,1,0,0,1-.69.3h0a1.16,1.16,0,0,1-.91-.4c-1.39-.07-2.63-.12-3.78-.13-2.38,0-4.8.07-7.15.17l-.42,0-2.44.09a82.62,82.62,0,0,1-10.18-.27c-5.88-.52-11.84-1.31-17.6-2.08l-2.57-.34c-6.16-.82-12.68-1.76-19.92-2.87l-4-.6q-3-.45-6.14-.94c.68,2.14,1.17,3.94,1.55,5.64a32.1,32.1,0,0,1,.7,10.74,38.44,38.44,0,0,1-3.45,11.39.83.83,0,0,1-.07.13c11.2,5,22.52,9.58,33.65,13.6,7.38,2.67,15,5.19,23.29,7.73A146.26,146.26,0,0,0,607,473.35c4.58.59,9.21,1,12.72,1.22.69.05,1.39.12,2.11.19H622c3.26.33,6.62.66,9.47-.41s5.15-3.69,6.42-7.23c1.06-2.94,1-5.85,1-8.94v-.52a.86.86,0,0,1,.14-.47l-.09-1.62c-.1-2-.14-4.09-.18-5.93,0-.76,0-1.52,0-2.27q-.11-3.76-.18-7.53-.13-7-.24-13.91c0-4.28-.1-8.67-.12-13s0-8.83,0-13.25c0-4.82,0-9.66,0-14.48a1.27,1.27,0,0,1,.07-.38l0-2.39-.66-54c0-4.24-.09-8.6-.42-12.86-.89-11.61-4-19.69-9.67-25.42-5.51-5.53-13.62-9.43-24.1-11.6a89.86,89.86,0,0,0-11.63-1.34l-3.11-.23c-2.5-.2-4.79-.48-7-.86a1,1,0,0,1-.8.19c-.62-.14-1.23-.28-1.85-.44a56,56,0,0,1-13.87-5.7,68.11,68.11,0,0,1-7-4.65,25.81,25.81,0,0,1-1.78,4.38c-.52,1-1.12,2-1.73,2.94a.9.9,0,0,1-.08.23c-.24.47-.49.93-.76,1.38a42.54,42.54,0,0,1-8.81,10.43A41.4,41.4,0,0,1,533,292.23a25.77,25.77,0,0,1-13.13,1.65,31.5,31.5,0,0,1-12.78-5,39.29,39.29,0,0,1-9.42-8.83,25.52,25.52,0,0,1-3.63,2.3c-4.61,2.4-9.86,3.14-14.94,3.85-1.24.17-2.47.34-3.68.54-7.4,1.19-12.67,3.13-17.09,6.31a42.46,42.46,0,0,0-11.51,13c-6.28,10.55-8.58,22.85-10.81,34.75l0,.24c-.19,1-.37,1.95-.55,2.92A207.83,207.83,0,0,1,423.82,383c-2.86,7.12-6,14.28-9.08,21.2-7.62,17.26-15.49,35.08-19.45,53.88-3.14,14.91-4.13,30.39-4.69,43.58l-.17,4.21A8.21,8.21,0,0,1,393.51,505.32Zm99.9-72.56c3.2,0,6.27,1.35,9,2.66,1.53.74,3.05,1.5,4.57,2.26,2,1,4.16,2.07,6.26,3.07,3.34,1.6,6.83,3.23,10.39,4.83a.64.64,0,0,1,.06-.18A45.54,45.54,0,0,0,526,439a27.83,27.83,0,0,0,.87-10.08,50.93,50.93,0,0,0-2.58-10.84c-2.75-.46-5-.9-7.12-1.37a40.38,40.38,0,0,1-8.62-2.81,46.16,46.16,0,0,1-6.74-4c-1.67-1.16-3.33-2.41-4.93-3.62-2.47-1.86-5-3.77-7.65-5.4a32.62,32.62,0,0,0-6.73-3.25,29.65,29.65,0,0,0-9-1.3c-2.43,0-4.9,0-7.28.09l-2.57.07-5,.11h-.5c-.49,0-1.28,0-1.43.22s-.29.74-.07.9a11.71,11.71,0,0,0,2.07,1l.82.35c1.14.51,2.31,1,3.48,1.41a61.81,61.81,0,0,0,8.3,2.34.84.84,0,0,1,.62.6.85.85,0,0,1,.09.31.91.91,0,0,1-.78,1l-5.88.72q-4.05.51-8.1,1c-1.23.16-2.47.3-3.72.44-2.75.31-5.57.64-8.33,1.05a23.67,23.67,0,0,0-10.05,3.47c-1,.69-2,1.49-2.93,2.26a27.14,27.14,0,0,1-5.42,3.73l-.83.37c-1.57.69-3.33,1.46-3.52,2.94,1.61.51,3.57-.51,4.88-1.2A53.44,53.44,0,0,1,438.64,415a47.64,47.64,0,0,1,12.14-1.58,1,1,0,0,1,0,1.93c-.73,0-1.47.05-2.2.09a48.06,48.06,0,0,0-17.28,4.27c-.7.33-1.39.69-2.07,1l-.1.05c-.58.31-1.17.61-1.76.9a11.58,11.58,0,0,1-3.19,1.07c-1.52,1.21-3,2.38-4.53,3.54l-.51.4a18.14,18.14,0,0,0-1.52,1.23c-.71.67-1,1.21-.9,1.63.25.9,2.09.44,2.3.38a11.33,11.33,0,0,0,1.72-.67l.23-.11c.75-.34,1.48-.69,2.22-1.06,1.45-.72,2.95-1.51,4.27-2.21,1.49-.79,3-1.6,4.57-2.36a42.56,42.56,0,0,1,9.18-3.46,25,25,0,0,1,4.93-.64h1.92a29.94,29.94,0,0,0,3.78-.15.92.92,0,0,1,1,.81.9.9,0,0,1-.75,1.06,23.18,23.18,0,0,1-4.14.19c-.88,0-1.77,0-2.62,0a24.83,24.83,0,0,0-5.51,1,64.69,64.69,0,0,0-11.54,5.2c-2.34,1.24-4.76,2.53-7.23,3.61a10.54,10.54,0,0,1-2.3.74,2.3,2.3,0,0,0,.5,2,3.21,3.21,0,0,0,2.47,1.12c2,.08,3.77-1,5.49-2.06l.3-.18a31.64,31.64,0,0,1,6-2.86,30,30,0,0,1,13.21-1.58h0a.94.94,0,0,1,.83,1,.88.88,0,0,1-1,.79,30.2,30.2,0,0,0-7.79.29,29,29,0,0,0-6.54,1.94,28.28,28.28,0,0,0-3,1.52c-.35.2-.69.41-1,.62-.67.41-1.36.83-2.09,1.2A10,10,0,0,1,422.7,437a2.54,2.54,0,0,0,1.86,1.48c2.48.77,5.19.44,7.82.11l.37,0c4.56-.56,8.67-1.05,12.88-1.43a116.66,116.66,0,0,1,25.53.08l1.08.14c3.35.44,6.8.9,10,.06a15.36,15.36,0,0,0,4.17-2.08,14,14,0,0,1,5.34-2.39A11.42,11.42,0,0,1,493.41,432.76Zm90.13-8.66c-.88,0-1.76,0-2.63-.05-2.69-.12-5.55-.35-9-.74l-.25,0V423c.24-6.85,2.65-13.73,7.38-21,1.88-2.91,4-5.73,6-8.46,2.34-3.15,4.77-6.4,6.87-9.82a45.84,45.84,0,0,0,3.72-7.24l.35-.88.18.93c.52,2.68,1,5.47,1.42,8.3.84,5.64,1.53,11.79,2.1,18.78.49,6,.84,11.83,1.22,18.83l.09,1.49-.31,0c-3-.16-6-.17-9.32,0l-1.41.06C587.83,424,585.68,424.1,583.54,424.1Zm-11.32-1.31c3.33.37,6.1.6,8.71.71,3,.13,6,0,9-.13l1.46-.06c3.19-.13,6.17-.13,9.07,0l0-.88c-.38-7-.73-12.87-1.22-18.82-.57-7-1.26-13.11-2.1-18.74-.37-2.5-.79-5-1.24-7.36a48.45,48.45,0,0,1-3.41,6.45c-2.12,3.45-4.55,6.71-6.9,9.87-2,2.72-4.12,5.54-6,8.43C574.89,409.42,572.51,416.13,572.22,422.79Z"/><polygon class="cls-1" points="440.69 208.78 440.69 208.78 440.69 208.78 440.69 208.78"/><polygon class="cls-1" points="440.88 208.98 440.49 208.59 440.88 208.98 440.88 208.98"/><path class="cls-1" d="M442.18,211c-1.62-1.44-1.79-4.15-1.74-6.17a10.89,10.89,0,0,1,1.82-6.26c1.69-2.37,3.87-4.62,4.47-7.56.28-1.37,0-3.17,1.18-4.19s2.78-.55,4.06-.27a14.37,14.37,0,0,0,4,.58,9.42,9.42,0,0,0,3.28-.93c2-.88,4.56-2.91,6.87-2.29,2.53.69,2.62,3.94,3.87,5.8,1.73,2.59,4.65,1.82,7.25,1.4,6.19-1,8.82,5.32,11.37,9.73a16.14,16.14,0,0,0,5.52,6.05,7.21,7.21,0,0,0,3.53,1,8.17,8.17,0,0,0,3.8-1.17,5.25,5.25,0,0,1,4.72-.54,8.63,8.63,0,0,1,3.67,3.18c.91,1.34,1.6,2.81,2.39,4.23a36.13,36.13,0,0,0,2.43,3.69,43.1,43.1,0,0,0,5.12,6.22,10.63,10.63,0,0,0,6,3.26,5.79,5.79,0,0,0,3.15-.54,6.1,6.1,0,0,0,1.83-1.95,10.81,10.81,0,0,1,2.09-2.6c1-.72,2.85.27,3.8.72,2.24,1,4.47,2.61,7,2.48a6.09,6.09,0,0,0,4.83-3.19,13,13,0,0,0,1.35-3.4.39.39,0,0,0-.76-.21c-.61,2.28-1.78,4.94-4.22,5.73-2.69.87-5.23-.95-7.54-2.07a9.92,9.92,0,0,0-3.8-1.22,2.73,2.73,0,0,0-2.06,1.19c-.74.85-1.32,1.84-2,2.71a3.31,3.31,0,0,1-2.78,1.31c-2.55.05-4.72-1.65-6.42-3.37a51.29,51.29,0,0,1-5.2-6.54c-1.84-2.57-3-5.65-5-8.08-1.78-2.15-4.67-3.78-7.49-2.8-1.47.51-2.72,1.56-4.29,1.76a5.86,5.86,0,0,1-3.89-1c-2.5-1.59-4.17-4.22-5.53-6.78-2.28-4.31-5.54-9.74-11.21-9-1.53.2-3.1.79-4.66.58s-2.31-1.4-2.87-2.72c-.84-2-1.58-4.42-4-4.86-2.28-.4-4.5,1.12-6.43,2.09a10.14,10.14,0,0,1-3.69,1.24,16.55,16.55,0,0,1-4.36-.65,6,6,0,0,0-3.35.07,3.47,3.47,0,0,0-2,2.74,16,16,0,0,1-.93,4.33,22.23,22.23,0,0,1-2.54,3.89,16.3,16.3,0,0,0-2.06,3.09,11.3,11.3,0,0,0-.81,3.08,13.72,13.72,0,0,0,.5,6.58,5,5,0,0,0,1.31,2c.3.27.74-.17.44-.44Z"/><path class="cls-1" d="M526.36,227.07q-.33,0-.66,0c-2-.2-4-1.29-6.14-3.33a42.9,42.9,0,0,1-5.15-6.26l0-.06a40.58,40.58,0,0,1-2.41-3.66l-.68-1.27a30.47,30.47,0,0,0-1.69-2.93,8.21,8.21,0,0,0-3.55-3.08c-1.61-.67-3-.27-4.48.52a8.4,8.4,0,0,1-3.92,1.2h0a7.39,7.39,0,0,1-3.67-1.06,16.2,16.2,0,0,1-5.62-6.15c-.29-.51-.59-1-.88-1.58-2.31-4.15-4.91-8.87-10.21-8l-.68.12c-2.42.41-5.16.87-6.84-1.63a11.25,11.25,0,0,1-1-2.22c-.59-1.57-1.14-3-2.7-3.47s-3.46.56-5.08,1.45c-.56.31-1.09.6-1.6.82a10,10,0,0,1-3.38.95,11.83,11.83,0,0,1-3.46-.45l-.7-.16c-1.22-.27-2.73-.6-3.69.24a4,4,0,0,0-.94,2.79A10,10,0,0,1,447,191c-.49,2.38-2,4.3-3.38,6.16-.39.5-.77,1-1.13,1.51a10.53,10.53,0,0,0-1.78,6.11c-.07,3,.47,4.9,1.65,6h0a.55.55,0,0,1,.05.79.61.61,0,0,1-.85.06,5.18,5.18,0,0,1-1.39-2.16,14,14,0,0,1-.51-6.72,11.62,11.62,0,0,1,.83-3.15A12.84,12.84,0,0,1,442.2,197l.45-.59a22,22,0,0,0,2.44-3.76,9.8,9.8,0,0,0,.74-3.05c.05-.4.1-.8.17-1.21a3.7,3.7,0,0,1,2.12-2.94,6.06,6.06,0,0,1,3.5-.09l1.12.24a10.69,10.69,0,0,0,3.17.4,9.8,9.8,0,0,0,3.58-1.21c.33-.16.67-.34,1-.53,1.7-.9,3.62-1.93,5.6-1.58,2.37.43,3.24,2.55,4,4.43.08.2.16.4.25.59.68,1.63,1.48,2.39,2.65,2.55a9.21,9.21,0,0,0,3.07-.29c.5-.11,1-.22,1.52-.28,6.22-.81,9.64,5.67,11.49,9.14,1.27,2.41,2.91,5.08,5.42,6.68a5.56,5.56,0,0,0,3.72,1,7.75,7.75,0,0,0,2.54-1,13.68,13.68,0,0,1,1.69-.78c3.09-1.07,6.13.88,7.79,2.88a27.65,27.65,0,0,1,2.87,4.53,33,33,0,0,0,2.14,3.57l.12.18a51,51,0,0,0,5,6.32c1.42,1.44,3.59,3.35,6.23,3.29a3,3,0,0,0,2.57-1.2c.31-.39.61-.81.9-1.22s.72-1,1.13-1.5a3,3,0,0,1,2.28-1.28,9.94,9.94,0,0,1,3.91,1.25c.4.19.81.41,1.23.63,2,1,4,2.11,6.1,1.42,1.86-.6,3.22-2.47,4-5.54a.64.64,0,0,1,.81-.46.65.65,0,0,1,.48.81,13.35,13.35,0,0,1-1.38,3.47,6.29,6.29,0,0,1-5.05,3.32c-2.09.12-3.92-.84-5.7-1.76-.49-.26-1-.51-1.48-.74l-.28-.13c-.92-.44-2.46-1.18-3.25-.62a6.93,6.93,0,0,0-1.57,1.88l-.45.66-.1.14a6,6,0,0,1-1.83,1.89A5.69,5.69,0,0,1,526.36,227.07Zm-21.95-21.51a4.66,4.66,0,0,1,1.83.38,8.67,8.67,0,0,1,3.79,3.28,30.73,30.73,0,0,1,1.73,3c.22.43.45.85.68,1.27a36.66,36.66,0,0,0,2.37,3.6l.05.06a42.42,42.42,0,0,0,5.08,6.18c2.06,2,4,3,5.82,3.18a5.38,5.38,0,0,0,3-.5,5.47,5.47,0,0,0,1.65-1.73l.1-.14.44-.64a7.33,7.33,0,0,1,1.71-2c1.05-.74,2.71.05,3.81.57l.27.13c.5.23,1,.49,1.51.75,1.71.89,3.49,1.8,5.41,1.7a5.73,5.73,0,0,0,4.6-3,12.62,12.62,0,0,0,1.33-3.33c0-.09,0-.12-.09-.14s-.13,0-.14.07c-.88,3.27-2.36,5.26-4.41,5.92-2.33.76-4.56-.42-6.53-1.45l-1.21-.63a9.66,9.66,0,0,0-3.68-1.19,2.42,2.42,0,0,0-1.85,1.09,17.42,17.42,0,0,0-1.1,1.46c-.29.41-.6.84-.92,1.25a3.62,3.62,0,0,1-3,1.4c-2.83.07-5.14-1.94-6.63-3.45a50.06,50.06,0,0,1-5.09-6.39l-.13-.18a35.36,35.36,0,0,1-2.17-3.62,28.52,28.52,0,0,0-2.81-4.45c-1.55-1.86-4.36-3.69-7.19-2.71A14.78,14.78,0,0,0,501,206a8.2,8.2,0,0,1-2.72,1,6.11,6.11,0,0,1-4.08-1.06c-2.62-1.66-4.31-4.41-5.62-6.88-2.65-5-5.81-9.53-10.93-8.86-.49.07-1,.17-1.48.28a9.61,9.61,0,0,1-3.25.3c-1.77-.24-2.58-1.67-3.09-2.88l-.25-.6c-.74-1.83-1.52-3.72-3.59-4.09-1.79-.32-3.62.66-5.24,1.52l-1,.54a10.41,10.41,0,0,1-3.79,1.26,11.27,11.27,0,0,1-3.33-.41l-1.1-.24a5.67,5.67,0,0,0-3.19.06,3.26,3.26,0,0,0-1.79,2.53c-.06.4-.12.79-.17,1.18a10.13,10.13,0,0,1-.78,3.21,22,22,0,0,1-2.5,3.86l-.45.59a12.49,12.49,0,0,0-1.65,2.53,11.46,11.46,0,0,0-.79,3,13.58,13.58,0,0,0,.48,6.46,4.82,4.82,0,0,0,1.24,1.94l.08,0c-1.31-1.17-1.91-3.26-1.84-6.38a11.17,11.17,0,0,1,1.88-6.42c.36-.51.75-1,1.14-1.53,1.39-1.81,2.82-3.68,3.28-5.93a10.06,10.06,0,0,0,.14-1.18,4.48,4.48,0,0,1,1.13-3.16c1.16-1,2.9-.64,4.17-.36l.7.16a11.73,11.73,0,0,0,3.31.44,9.42,9.42,0,0,0,3.19-.9c.48-.21,1-.5,1.55-.8,1.71-.94,3.66-2,5.5-1.5s2.46,2.18,3.06,3.81a10.47,10.47,0,0,0,1,2.1c1.49,2.21,3.93,1.8,6.3,1.39l.69-.11c5.67-.91,8.5,4.19,10.77,8.29.29.54.59,1.07.88,1.57a15.58,15.58,0,0,0,5.42,5.95,6.77,6.77,0,0,0,3.39,1h0a7.88,7.88,0,0,0,3.66-1.14A6.87,6.87,0,0,1,504.41,205.56Z"/><path class="cls-1" d="M526.36,226.89c-.21,0-.42,0-.64,0-1.94-.19-3.91-1.26-6-3.28a43.17,43.17,0,0,1-5.13-6.23l0-.06a38.07,38.07,0,0,1-2.39-3.64c-.23-.42-.46-.84-.68-1.27a30.09,30.09,0,0,0-1.71-3,8.5,8.5,0,0,0-3.62-3.15,5.21,5.21,0,0,0-4.65.54,8.32,8.32,0,0,1-3.83,1.17h0a7.23,7.23,0,0,1-3.57-1,16,16,0,0,1-5.56-6.09c-.29-.5-.58-1-.88-1.57-2.33-4.21-5-9-10.4-8.11l-.69.11c-2.47.42-5,.86-6.65-1.55a10.64,10.64,0,0,1-1-2.18c-.57-1.54-1.17-3.13-2.82-3.58s-3.57.56-5.22,1.47c-.56.3-1.09.59-1.58.81a9.75,9.75,0,0,1-3.32.94,12.22,12.22,0,0,1-3.4-.45l-.58-.13-.13,0c-1.26-.28-2.83-.63-3.85.28a4.09,4.09,0,0,0-1,2.91,10.93,10.93,0,0,1-.16,1.22c-.47,2.34-1.93,4.24-3.34,6.08-.38.5-.77,1-1.14,1.52a10.83,10.83,0,0,0-1.8,6.22c-.08,3,.48,5,1.71,6.1h0a.36.36,0,0,1,0,.52.42.42,0,0,1-.59.05,5.11,5.11,0,0,1-1.34-2.09,14,14,0,0,1-.5-6.63,11.83,11.83,0,0,1,.82-3.1,12.88,12.88,0,0,1,1.69-2.6c.13-.17.26-.33.38-.5l.07-.09a21,21,0,0,0,2.46-3.79,10,10,0,0,0,.75-3.1c.05-.39.11-.8.18-1.21a3.53,3.53,0,0,1,2-2.8,5.88,5.88,0,0,1,3.4-.07l1.11.24a11.33,11.33,0,0,0,3.22.4,10,10,0,0,0,3.66-1.23c.33-.16.66-.34,1-.53,1.67-.89,3.56-1.91,5.47-1.56,2.27.4,3.12,2.48,3.87,4.31l.24.59a3.78,3.78,0,0,0,2.8,2.67,9.3,9.3,0,0,0,3.14-.3c.49-.1,1-.21,1.5-.28,6.09-.79,9.48,5.61,11.3,9.05,1.29,2.43,2.94,5.13,5.49,6.75a5.79,5.79,0,0,0,3.84,1,8.34,8.34,0,0,0,2.61-1,11.94,11.94,0,0,1,1.66-.77c3-1,6,.87,7.59,2.82a27.47,27.47,0,0,1,2.84,4.5,34.41,34.41,0,0,0,2.15,3.59l.13.18a51.05,51.05,0,0,0,5.06,6.35c1.42,1.44,3.61,3.34,6.25,3.34h.11a3.22,3.22,0,0,0,2.71-1.27c.33-.4.62-.82.91-1.24s.72-1,1.12-1.48a2.79,2.79,0,0,1,2.14-1.22,9.82,9.82,0,0,1,3.83,1.24c.4.19.8.4,1.22.62,2,1.06,4.06,2.15,6.25,1.44,1.92-.62,3.33-2.53,4.17-5.67a.46.46,0,0,1,.58-.33.47.47,0,0,1,.35.58,13.31,13.31,0,0,1-1.36,3.42,6.08,6.08,0,0,1-4.9,3.23c-2,.11-3.84-.83-5.6-1.74-.49-.25-1-.51-1.49-.74l-.28-.13c-1-.46-2.56-1.22-3.43-.6a6.83,6.83,0,0,0-1.63,1.93l-.44.65-.1.13a5.9,5.9,0,0,1-1.77,1.85A5.56,5.56,0,0,1,526.36,226.89Zm-21.95-21.14a4.65,4.65,0,0,1,1.76.36,8.67,8.67,0,0,1,3.71,3.21,31.61,31.61,0,0,1,1.71,3l.68,1.27a35.81,35.81,0,0,0,2.39,3.61l0,.07a42.87,42.87,0,0,0,5.11,6.21c2.09,2,4,3,5.93,3.23a5.51,5.51,0,0,0,3.09-.53,5.66,5.66,0,0,0,1.72-1.79l.09-.13c.15-.21.3-.43.44-.65a7.28,7.28,0,0,1,1.67-2c1-.68,2.62.11,3.62.58l.27.13c.5.23,1,.49,1.5.75,1.74.9,3.53,1.83,5.51,1.72a5.94,5.94,0,0,0,4.76-3.15,13.22,13.22,0,0,0,1.34-3.38.29.29,0,0,0-.23-.36.28.28,0,0,0-.36.2c-.86,3.2-2.3,5.15-4.28,5.79-2.27.74-4.36-.37-6.39-1.44l-1.22-.63a9.68,9.68,0,0,0-3.76-1.21h0a2.7,2.7,0,0,0-2,1.15,17.17,17.17,0,0,0-1.1,1.48c-.29.41-.6.84-.92,1.24a3.4,3.4,0,0,1-2.84,1.33h-.12c-2.7,0-4.93-1.93-6.38-3.39a51.33,51.33,0,0,1-5.07-6.37l-.13-.18a34.78,34.78,0,0,1-2.16-3.61,27.83,27.83,0,0,0-2.83-4.47c-1.58-1.91-4.47-3.78-7.39-2.76a12.14,12.14,0,0,0-1.64.75,8.06,8.06,0,0,1-2.67,1,5.88,5.88,0,0,1-3.95-1c-2.58-1.63-4.26-4.36-5.55-6.81-2.68-5-5.88-9.63-11.13-8.95-.49.06-1,.17-1.49.27a9.29,9.29,0,0,1-3.19.3A3.92,3.92,0,0,1,470,187.8l-.24-.59c-.77-1.88-1.56-3.82-3.74-4.21-1.85-.33-3.72.66-5.36,1.54l-1,.54a10.23,10.23,0,0,1-3.73,1.25,11.29,11.29,0,0,1-3.27-.41l-1.11-.24a5.76,5.76,0,0,0-3.29.06,3.35,3.35,0,0,0-1.9,2.67c-.07.41-.12.81-.17,1.2a10.31,10.31,0,0,1-.77,3.15,21.64,21.64,0,0,1-2.48,3.83l-.07.09c-.13.16-.25.33-.38.5a12.94,12.94,0,0,0-1.67,2.56,11.17,11.17,0,0,0-.8,3.06,13.52,13.52,0,0,0,.49,6.54,4.93,4.93,0,0,0,1.29,2,.23.23,0,0,0,.33,0,.18.18,0,0,0,0-.28h0c-1.26-1.13-1.84-3.17-1.77-6.24a11,11,0,0,1,1.84-6.31c.37-.51.76-1,1.14-1.52,1.4-1.83,2.85-3.72,3.31-6a10.92,10.92,0,0,0,.15-1.2,4.29,4.29,0,0,1,1.06-3c1.1-1,2.71-.6,4-.31l.13,0,.58.13a11.91,11.91,0,0,0,3.35.44,9.41,9.41,0,0,0,3.25-.92,16.94,16.94,0,0,0,1.57-.81c1.68-.92,3.59-2,5.36-1.48s2.35,2.11,2.94,3.69a9.83,9.83,0,0,0,1,2.14c1.55,2.32,4.06,1.89,6.48,1.48l.69-.12c5.54-.88,8.21,3.94,10.57,8.21.31.54.59,1.06.88,1.56a15.85,15.85,0,0,0,5.49,6,7,7,0,0,0,3.49,1h0a8.06,8.06,0,0,0,3.75-1.16A6.64,6.64,0,0,1,504.41,205.75Z"/><path class="cls-1" d="M526.36,227.16q-.33,0-.66,0c-2-.2-4-1.3-6.2-3.36a42.41,42.41,0,0,1-5.16-6.27l-.05-.06a38.54,38.54,0,0,1-2.41-3.66l-.69-1.28a30.38,30.38,0,0,0-1.68-2.93,8.2,8.2,0,0,0-3.51-3,4.94,4.94,0,0,0-4.41.52,8.53,8.53,0,0,1-4,1.21,7.45,7.45,0,0,1-3.72-1.07,16.33,16.33,0,0,1-5.66-6.19c-.29-.51-.58-1-.88-1.58-2.29-4.13-4.87-8.82-10.11-8l-.69.11c-2.45.42-5.21.89-6.93-1.66a11.34,11.34,0,0,1-1-2.23c-.58-1.56-1.13-3-2.64-3.43s-3.41.57-5,1.45c-.54.29-1.09.6-1.6.82a10,10,0,0,1-3.41,1,12.34,12.34,0,0,1-3.49-.45l-.7-.16c-1.2-.27-2.69-.6-3.61.21a4,4,0,0,0-.91,2.73,11.7,11.7,0,0,1-.16,1.26c-.48,2.39-2,4.32-3.39,6.19-.38.49-.77,1-1.13,1.51a10.56,10.56,0,0,0-1.76,6.06c-.07,2.93.46,4.86,1.62,5.89a.64.64,0,0,1,.05.92.68.68,0,0,1-1,.06,5.17,5.17,0,0,1-1.41-2.19,14.17,14.17,0,0,1-.52-6.76,11.48,11.48,0,0,1,.84-3.18,12.55,12.55,0,0,1,1.72-2.65l.45-.6a21.84,21.84,0,0,0,2.44-3.74,10.1,10.1,0,0,0,.72-3c.05-.4.11-.81.18-1.21a3.77,3.77,0,0,1,2.16-3,6.18,6.18,0,0,1,3.56-.09c.37.07.75.15,1.12.24a10.83,10.83,0,0,0,3.14.4,9.83,9.83,0,0,0,3.56-1.21l1-.52c1.71-.92,3.64-2,5.65-1.59,2.42.43,3.3,2.58,4.07,4.48l.25.59a3.52,3.52,0,0,0,2.58,2.5,9,9,0,0,0,3-.3c.47-.1,1-.21,1.53-.28,6.28-.81,9.72,5.7,11.57,9.19,1.27,2.4,2.91,5.06,5.4,6.64a5.43,5.43,0,0,0,3.65,1,7.51,7.51,0,0,0,2.52-1,14.54,14.54,0,0,1,1.7-.78c3.14-1.09,6.21.89,7.89,2.91a27.79,27.79,0,0,1,2.88,4.54,33.82,33.82,0,0,0,2.13,3.56l.12.18a51.75,51.75,0,0,0,5,6.31c1.39,1.4,3.52,3.26,6.06,3.26h.11a2.93,2.93,0,0,0,2.5-1.16c.32-.4.61-.82.9-1.22a18.54,18.54,0,0,1,1.13-1.51,3.09,3.09,0,0,1,2.35-1.31,10.09,10.09,0,0,1,4,1.26c.4.19.8.4,1.22.63,2,1,4,2.09,6,1.42,1.82-.6,3.17-2.44,4-5.49a.72.72,0,0,1,.38-.47.82.82,0,0,1,.54,0,.74.74,0,0,1,.54.92,13.23,13.23,0,0,1-1.39,3.5,6.37,6.37,0,0,1-5.12,3.36c-2.11.11-3.95-.85-5.73-1.77-.51-.26-1-.52-1.49-.74l-.25-.12c-.87-.42-2.44-1.17-3.18-.64a6.66,6.66,0,0,0-1.56,1.86l-.45.66-.1.13a5.91,5.91,0,0,1-1.86,1.93A5.8,5.8,0,0,1,526.36,227.16Zm-21.95-21.68a5,5,0,0,1,1.87.38,8.82,8.82,0,0,1,3.83,3.31,29.93,29.93,0,0,1,1.72,3l.05.09c.21.39.42.79.63,1.17a37.13,37.13,0,0,0,2.37,3.59l0,.07a42.93,42.93,0,0,0,5.07,6.17c2,1.94,3.93,3,5.77,3.16a5.31,5.31,0,0,0,2.93-.5,5.42,5.42,0,0,0,1.62-1.71l.1-.13c.14-.21.29-.42.43-.64a7.49,7.49,0,0,1,1.74-2.05c1.09-.77,2.85.06,3.89.56l.28.13c.48.22,1,.48,1.45.73l.08,0c1.69.88,3.44,1.79,5.34,1.68a5.65,5.65,0,0,0,4.54-3,12.89,12.89,0,0,0,1.31-3.3c-.94,3.27-2.44,5.28-4.52,6-2.37.76-4.52-.37-6.6-1.47l-1.21-.62a9.69,9.69,0,0,0-3.65-1.19h0a2.46,2.46,0,0,0-1.78,1.06c-.39.46-.74,1-1.09,1.45s-.6.86-.93,1.26a3.66,3.66,0,0,1-3.05,1.44h-.12c-2.81,0-5.1-2-6.57-3.48a51.94,51.94,0,0,1-5.11-6.4l-.12-.18a32.91,32.91,0,0,1-2.18-3.63,27.13,27.13,0,0,0-2.8-4.43c-1.53-1.84-4.31-3.65-7.09-2.68a12.17,12.17,0,0,0-1.6.74,8.42,8.42,0,0,1-2.76,1,6.17,6.17,0,0,1-4.14-1.06c-2.64-1.68-4.33-4.44-5.65-6.92-2.63-5-5.76-9.46-10.84-8.81-.48.06-1,.17-1.47.27a9.58,9.58,0,0,1-3.29.31c-1.8-.25-2.63-1.71-3.15-2.94l-.25-.6c-.77-1.89-1.5-3.68-3.53-4-1.76-.31-3.58.66-5.18,1.52-.35.19-.69.37-1,.53A10.39,10.39,0,0,1,456,186.6a11.68,11.68,0,0,1-3.34-.41L451.5,186a5.55,5.55,0,0,0-3.13.05,3.08,3.08,0,0,0-1.74,2.46c-.07.4-.12.8-.17,1.18a10.45,10.45,0,0,1-.79,3.24,20.39,20.39,0,0,1-2.24,3.52,14,14,0,0,0,2.94-5.49c.07-.35.11-.75.15-1.17a4.45,4.45,0,0,1,1.15-3.21c1.2-1.06,2.89-.68,4.24-.38l.72.16a11.62,11.62,0,0,0,3.28.44,9.48,9.48,0,0,0,3.15-.9c.48-.21,1-.49,1.53-.79,1.75-.95,3.7-2,5.58-1.52s2.54,2.29,3.12,3.86a10.68,10.68,0,0,0,1,2.09c1.45,2.16,3.75,1.77,6.2,1.36l.69-.12c5.74-.92,8.46,4,10.86,8.34l.88,1.57a15.66,15.66,0,0,0,5.39,5.92,6.8,6.8,0,0,0,3.35,1,7.86,7.86,0,0,0,3.63-1.12A6.89,6.89,0,0,1,504.41,205.48Zm-62.07-7.65a10.28,10.28,0,0,0-1.27,2,9.2,9.2,0,0,0-.33.89,9,9,0,0,1,1.23-2.41Z"/><path class="cls-1" d="M435.21,188.3c1.17,2.67.06,5.43-1.14,7.87s-2.65,4.8-3.21,7.46c-1.23,5.84,2.83,10.88,4.29,16.24.84,3.11.37,6.06-.46,9.12-.77,2.84-1.8,5.81-1.44,8.8.65,5.41,5.7,7.49,9.95,9.74a14.47,14.47,0,0,1,6,5.15c1.61,2.64,2.52,5.75,4.82,7.93,2,1.9,4.69,2.84,7.27,1.54,1.18-.58,2.34-1.49,3.73-1.29a2.44,2.44,0,0,1,1.67,1.17c1.55,2.32,1.66,6.62,5.17,6.93,1,.09,1.72-.49,2.68-.69a9.91,9.91,0,0,1,3.56,0,5.28,5.28,0,0,1,2.9,1.22c1,1,.76,2.66,1.17,3.89a3.66,3.66,0,0,0,2,2.59c.51.18,1,.15,1.56.28.82.21,1.07,1.07,1.71,1.54a1.48,1.48,0,0,0,2.32-.67c0-.09.17-.6.18-.61s.49,0,.66.09a3.76,3.76,0,0,0,1.53-.06c1.12-.21,2-.12,2.81-1.12,1-1.22.94-3,2.74-3.34,1.15-.2,2.35-.07,3.33-.82a3.7,3.7,0,0,0,1.31-2.68,6.11,6.11,0,0,0-.59-3.15c-.28-.59-1.15-.07-.88.51a4.67,4.67,0,0,1,.29,3.4c-.48,1.42-1.72,1.52-3,1.66a3.39,3.39,0,0,0-2.8,1.45c-.39.64-.57,1.38-1,2a2,2,0,0,1-1.89,1c-.42,0-.84.21-1.25.2a8.74,8.74,0,0,0-1.44-.19.87.87,0,0,0-.75.6,2.21,2.21,0,0,1-.29.79c-.45.51-.89-.08-1.18-.46a2.82,2.82,0,0,0-1.19-1,9.44,9.44,0,0,0-1.5-.28c-1.5-.33-1.81-2.25-2-3.54a4.57,4.57,0,0,0-1.27-2.95,6,6,0,0,0-2.56-1.2,9.65,9.65,0,0,0-6.12.37c-3.16,1.5-4.12-4.32-5.18-6.05a3.53,3.53,0,0,0-3.49-1.84c-1.41.14-2.48,1-3.75,1.57a4.62,4.62,0,0,1-4.32-.46c-2.74-1.66-3.87-4.7-5.28-7.41a14.36,14.36,0,0,0-5.2-5.78c-3.86-2.42-9.63-3.83-11.13-8.71-.88-2.87,0-5.92.78-8.71s1.53-5.64,1.15-8.55c-.73-5.56-5-10.23-5-15.91,0-5.42,4.72-9.4,5-14.71a7,7,0,0,0-.62-3.27c-.2-.46-.88-.06-.68.4Z"/><path class="cls-1" d="M488.37,278.35a1.85,1.85,0,0,1-1.09-.38,3.61,3.61,0,0,1-.69-.72,1.77,1.77,0,0,0-.93-.77,3.44,3.44,0,0,0-.63-.1,4.33,4.33,0,0,1-1-.2,3.88,3.88,0,0,1-2.14-2.76,8.47,8.47,0,0,1-.3-1.45,4.1,4.1,0,0,0-.8-2.33,5.14,5.14,0,0,0-2.75-1.13,9.33,9.33,0,0,0-3.46,0,6.12,6.12,0,0,0-1,.32,3.78,3.78,0,0,1-1.8.38c-2.6-.23-3.46-2.54-4.23-4.58a12.68,12.68,0,0,0-1.14-2.48,2.21,2.21,0,0,0-1.48-1.05,4.63,4.63,0,0,0-2.82.87l-.74.4c-2.46,1.23-5.23.65-7.59-1.59a17.64,17.64,0,0,1-3.41-5.25c-.45-.92-.92-1.86-1.45-2.74a14.5,14.5,0,0,0-5.92-5l-1.21-.63c-3.88-2-8.28-4.27-8.89-9.32-.31-2.64.42-5.24,1.13-7.75.11-.39.22-.77.32-1.15a16.63,16.63,0,0,0,.46-9,38.27,38.27,0,0,0-2-5.16c-1.55-3.54-3.16-7.19-2.31-11.2a24.19,24.19,0,0,1,2.45-6c.26-.51.53-1,.78-1.53,1.15-2.33,2.28-5,1.14-7.64h0a.7.7,0,0,1,.37-.93.6.6,0,0,1,.81.31,7.3,7.3,0,0,1,.65,3.39c-.16,2.62-1.37,4.93-2.54,7.16s-2.51,4.79-2.49,7.54c0,3,1.28,5.84,2.51,8.56a26.29,26.29,0,0,1,2.47,7.31c.39,3-.39,5.87-1.15,8.66l-.09.34c-.75,2.72-1.52,5.54-.7,8.22,1.08,3.49,4.44,5.16,7.69,6.78a35.72,35.72,0,0,1,3.33,1.78,14.56,14.56,0,0,1,5.3,5.88c.23.44.45.89.67,1.34,1.12,2.27,2.27,4.62,4.5,6a4.36,4.36,0,0,0,4.07.45,11.47,11.47,0,0,0,1.16-.59,7.3,7.3,0,0,1,2.67-1,3.79,3.79,0,0,1,3.75,2,12.26,12.26,0,0,1,.83,1.92c.62,1.63,1.38,3.65,2.58,4.14a1.67,1.67,0,0,0,1.42-.11,9.81,9.81,0,0,1,6.3-.39,6.2,6.2,0,0,1,2.68,1.26,4.85,4.85,0,0,1,1.36,3.12c.21,1.28.5,3,1.81,3.32a5,5,0,0,0,.56.08,3.49,3.49,0,0,1,1,.2,3.16,3.16,0,0,1,1.31,1.12c.14.19.41.54.59.55s.1,0,.17-.1a1.1,1.1,0,0,0,.15-.39,1.68,1.68,0,0,1,.09-.32,1.15,1.15,0,0,1,1-.78,2.53,2.53,0,0,1,.92.1,2.18,2.18,0,0,0,.55.09,2.54,2.54,0,0,0,.65-.09,3.82,3.82,0,0,1,.57-.11c.84-.07,1.28-.18,1.68-.85a6.41,6.41,0,0,0,.45-1,7.12,7.12,0,0,1,.52-1.08,3.7,3.7,0,0,1,3-1.58h.09c1.23-.13,2.29-.24,2.7-1.46a4.37,4.37,0,0,0-.28-3.19.82.82,0,0,1,.41-1.09.7.7,0,0,1,1,.34,6.49,6.49,0,0,1,.62,3.29,4,4,0,0,1-1.42,2.88,4.66,4.66,0,0,1-2.51.76c-.32,0-.63.06-.94.12-1.06.19-1.4.95-1.8,1.84a6.35,6.35,0,0,1-.77,1.39,3.11,3.11,0,0,1-2.35,1.12l-.63.1a4.05,4.05,0,0,1-1.63.06l-.15,0-.25-.05v0c0,.17-.11.38-.13.44a2,2,0,0,1-1.25,1.11A1.72,1.72,0,0,1,488.37,278.35Zm-12-10.54a10.57,10.57,0,0,1,1.77.15,5.5,5.5,0,0,1,3.05,1.3,4.49,4.49,0,0,1,1,2.63,7.61,7.61,0,0,0,.27,1.36,3.48,3.48,0,0,0,1.81,2.42,3.81,3.81,0,0,0,.83.16,4.24,4.24,0,0,1,.7.11,2.28,2.28,0,0,1,1.24,1,3.09,3.09,0,0,0,.57.62,1.2,1.2,0,0,0,1,.24,1.41,1.41,0,0,0,.89-.81,3.48,3.48,0,0,0,.1-.35c.08-.27.09-.3.16-.36s.38-.08.75,0l.13,0a3.45,3.45,0,0,0,1.43-.06l.65-.1a2.56,2.56,0,0,0,2-.92,6.11,6.11,0,0,0,.7-1.28c.42-.94.86-1.91,2.2-2.16.33-.06.66-.09,1-.12a4.19,4.19,0,0,0,2.24-.65,3.44,3.44,0,0,0,1.2-2.49,5.92,5.92,0,0,0-.57-3,.15.15,0,0,0-.23-.08.26.26,0,0,0-.15.36,4.9,4.9,0,0,1,.3,3.6c-.52,1.55-1.87,1.69-3.17,1.83h-.09a3.06,3.06,0,0,0-2.59,1.32,7.69,7.69,0,0,0-.48,1,6.44,6.44,0,0,1-.49,1,2.31,2.31,0,0,1-2.1,1.11,4.37,4.37,0,0,0-.5.09,2.88,2.88,0,0,1-.78.11,2.85,2.85,0,0,1-.67-.1,2,2,0,0,0-.72-.09.6.6,0,0,0-.53.44,1.37,1.37,0,0,0-.07.24,1.35,1.35,0,0,1-.27.63.78.78,0,0,1-.61.28c-.44,0-.77-.47-1-.77a2.61,2.61,0,0,0-1.08-.94,3.06,3.06,0,0,0-.83-.16c-.21,0-.42-.05-.63-.1-1.67-.38-2-2.41-2.22-3.76a4.27,4.27,0,0,0-1.18-2.79,5.55,5.55,0,0,0-2.44-1.14A9.25,9.25,0,0,0,473,268a2.27,2.27,0,0,1-1.86.12c-1.43-.57-2.24-2.72-2.89-4.45a13.18,13.18,0,0,0-.79-1.83,3.27,3.27,0,0,0-3.22-1.71,6.46,6.46,0,0,0-2.46.95c-.39.21-.79.43-1.21.61a4.94,4.94,0,0,1-4.58-.49c-2.36-1.43-3.55-3.84-4.7-6.18-.22-.45-.44-.9-.67-1.33a14,14,0,0,0-5.11-5.67,35.54,35.54,0,0,0-3.27-1.76c-3.36-1.67-6.83-3.39-8-7.11-.88-2.83,0-5.86.68-8.53l.1-.34c.74-2.73,1.51-5.56,1.14-8.43a26.23,26.23,0,0,0-2.43-7.16c-1.25-2.77-2.54-5.64-2.57-8.79,0-2.88,1.29-5.38,2.56-7.79,1.15-2.19,2.33-4.45,2.48-6.94a6.76,6.76,0,0,0-.6-3.14s0,0-.08,0a.18.18,0,0,0-.1.21c1.18,2.69.15,5.49-1.15,8.11q-.37.76-.78,1.53a23.49,23.49,0,0,0-2.4,5.86c-.81,3.84.76,7.41,2.28,10.87a38.68,38.68,0,0,1,2,5.24,17.13,17.13,0,0,1-.45,9.26l-.33,1.16c-.69,2.46-1.41,5-1.11,7.54.57,4.75,4.65,6.86,8.59,8.89l1.21.63a15,15,0,0,1,6.14,5.25c.54.9,1,1.86,1.47,2.79a17.27,17.27,0,0,0,3.3,5.09c2.18,2.07,4.72,2.62,7,1.5l.72-.39a4.91,4.91,0,0,1,3.17-.93,2.68,2.68,0,0,1,1.86,1.29,12.55,12.55,0,0,1,1.19,2.59c.78,2.07,1.52,4,3.77,4.22a3.33,3.33,0,0,0,1.54-.34,6.93,6.93,0,0,1,1.06-.35A9.14,9.14,0,0,1,476.4,267.81Z"/><path class="cls-1" d="M488.37,278.17a1.66,1.66,0,0,1-1-.35,3.27,3.27,0,0,1-.65-.69,2,2,0,0,0-1-.84,4.63,4.63,0,0,0-.65-.1,3.67,3.67,0,0,1-.91-.18,3.74,3.74,0,0,1-2-2.65,7.76,7.76,0,0,1-.29-1.42,4.23,4.23,0,0,0-.86-2.43,5.3,5.3,0,0,0-2.85-1.19,9.71,9.71,0,0,0-3.53,0,5.85,5.85,0,0,0-1,.32,3.73,3.73,0,0,1-1.71.37c-2.48-.22-3.29-2.37-4.08-4.45a12.77,12.77,0,0,0-1.15-2.52A2.34,2.34,0,0,0,465,261a4.71,4.71,0,0,0-2.94.88c-.24.14-.49.28-.74.4-2.38,1.19-5.07.63-7.37-1.56a17.43,17.43,0,0,1-3.37-5.19c-.46-.92-.92-1.88-1.46-2.76a14.6,14.6,0,0,0-6-5.12l-1.21-.63c-4-2.08-8.18-4.22-8.78-9.17-.31-2.6.42-5.18,1.12-7.68l.33-1.16a16.71,16.71,0,0,0,.45-9.06,37,37,0,0,0-2-5.2c-1.54-3.5-3.13-7.13-2.3-11.08a24,24,0,0,1,2.44-6c.26-.5.53-1,.78-1.53,1.17-2.36,2.32-5.11,1.14-7.8h0a.52.52,0,0,1,.28-.68.41.41,0,0,1,.56.22,7,7,0,0,1,.63,3.3c-.15,2.57-1.35,4.87-2.52,7.09-1.24,2.37-2.53,4.83-2.51,7.62,0,3.07,1.29,5.9,2.53,8.64a26.61,26.61,0,0,1,2.46,7.26c.38,2.95-.4,5.81-1.15,8.58l-.1.34c-.75,2.75-1.53,5.59-.69,8.33,1.1,3.56,4.5,5.25,7.79,6.88,1.18.59,2.3,1.14,3.31,1.78A14.34,14.34,0,0,1,451,253.5c.23.44.46.9.67,1.34,1.13,2.29,2.3,4.66,4.57,6a4.55,4.55,0,0,0,4.25.46,12.81,12.81,0,0,0,1.17-.59,6.89,6.89,0,0,1,2.6-1,3.62,3.62,0,0,1,3.57,1.88,13,13,0,0,1,.82,1.89c.62,1.66,1.4,3.73,2.68,4.25a1.91,1.91,0,0,0,1.57-.12,9.57,9.57,0,0,1,6.18-.37,5.88,5.88,0,0,1,2.6,1.21,4.74,4.74,0,0,1,1.3,3c.2,1.25.51,3.14,1.94,3.47l.59.09a3,3,0,0,1,.93.19,2.85,2.85,0,0,1,1.23,1.06c.19.24.46.61.73.62a.43.43,0,0,0,.32-.17,1,1,0,0,0,.19-.47c0-.09.05-.2.08-.29a1,1,0,0,1,.82-.66,2.42,2.42,0,0,1,.85.09,2.59,2.59,0,0,0,.6.1,2.81,2.81,0,0,0,.69-.1,4.86,4.86,0,0,1,.55-.1,2,2,0,0,0,1.82-.94,7.34,7.34,0,0,0,.47-1,6.29,6.29,0,0,1,.5-1.05,3.52,3.52,0,0,1,2.87-1.49h.09c1.24-.13,2.41-.25,2.86-1.59a4.59,4.59,0,0,0-.29-3.33.63.63,0,0,1,.32-.84.52.52,0,0,1,.72.25,6.31,6.31,0,0,1,.6,3.19,3.81,3.81,0,0,1-1.34,2.75,4.53,4.53,0,0,1-2.42.72c-.31,0-.64.06-.95.12-1.16.21-1.54,1.06-1.94,1.95a6.49,6.49,0,0,1-.75,1.36,2.92,2.92,0,0,1-2.23,1.05,5.27,5.27,0,0,0-.64.1,3.85,3.85,0,0,1-1.55.05l-.15,0a1.47,1.47,0,0,0-.43-.07l-.05.17-.12.41a1.78,1.78,0,0,1-1.13,1A1.33,1.33,0,0,1,488.37,278.17ZM476.4,268a10.22,10.22,0,0,1,1.74.15,5.37,5.37,0,0,1,2.94,1.24,4.3,4.3,0,0,1,.91,2.53,8,8,0,0,0,.28,1.39,3,3,0,0,0,2.8,2.71,5.58,5.58,0,0,1,.68.1,2.18,2.18,0,0,1,1.13.91,3.41,3.41,0,0,0,.61.65,1.38,1.38,0,0,0,1.18.27,1.58,1.58,0,0,0,1-.91,2.77,2.77,0,0,0,.11-.38c.07-.24.07-.24.1-.26s.24,0,.59,0l.14,0a3.42,3.42,0,0,0,1.49-.06l.65-.1a2.71,2.71,0,0,0,2.11-1,5.89,5.89,0,0,0,.73-1.32c.42-.94.82-1.82,2.07-2.05.32-.06.64-.09,1-.12a4.41,4.41,0,0,0,2.33-.69,3.6,3.6,0,0,0,1.27-2.62,6.07,6.07,0,0,0-.58-3.1.33.33,0,0,0-.48-.17.46.46,0,0,0-.24.61,4.78,4.78,0,0,1,.29,3.46c-.48,1.44-1.71,1.57-3,1.7h-.1a3.39,3.39,0,0,0-2.73,1.41,6.48,6.48,0,0,0-.49,1,7,7,0,0,1-.48,1,2.09,2.09,0,0,1-1.95,1,4.51,4.51,0,0,0-.53.1,3.68,3.68,0,0,1-.73.11,3.43,3.43,0,0,1-.64-.11,2.34,2.34,0,0,0-.78-.09.79.79,0,0,0-.68.56,1.07,1.07,0,0,0-.08.27,1.3,1.3,0,0,1-.23.54.55.55,0,0,1-.46.22c-.35,0-.64-.4-.86-.69a2.74,2.74,0,0,0-1.15-1,3,3,0,0,0-.89-.18l-.6-.09c-1.55-.35-1.87-2.31-2.09-3.61a4.54,4.54,0,0,0-1.23-2.91,5.9,5.9,0,0,0-2.53-1.17,9.41,9.41,0,0,0-6.06.36,2.08,2.08,0,0,1-1.71.12c-1.35-.55-2.15-2.66-2.79-4.35a12.63,12.63,0,0,0-.8-1.86,3.47,3.47,0,0,0-3.4-1.8,6.69,6.69,0,0,0-2.53,1,13.25,13.25,0,0,1-1.19.6,4.7,4.7,0,0,1-4.41-.47c-2.32-1.4-3.49-3.79-4.63-6.1l-.67-1.34a14.16,14.16,0,0,0-5.18-5.74c-1-.63-2.11-1.18-3.29-1.77-3.32-1.65-6.75-3.35-7.87-7-.86-2.78,0-5.78.68-8.42l.1-.35c.75-2.75,1.53-5.59,1.14-8.51a26.13,26.13,0,0,0-2.44-7.21c-1.24-2.75-2.53-5.6-2.55-8.71,0-2.83,1.28-5.31,2.54-7.71,1.15-2.2,2.35-4.47,2.5-7a7,7,0,0,0-.62-3.22.24.24,0,0,0-.33-.13.35.35,0,0,0-.19.45h0c1.15,2.62.13,5.37-1.14,8l-.79,1.54a23.73,23.73,0,0,0-2.42,5.9c-.82,3.9.76,7.5,2.29,11a38.12,38.12,0,0,1,2,5.22,16.87,16.87,0,0,1-.46,9.16c-.1.39-.21.77-.32,1.16-.7,2.48-1.43,5-1.12,7.61.59,4.85,4.71,7,8.69,9l1.22.63a14.75,14.75,0,0,1,6.06,5.18c.54.89,1,1.85,1.46,2.77a17.41,17.41,0,0,0,3.34,5.15c2.24,2.13,4.86,2.68,7.18,1.52l.73-.39a4.83,4.83,0,0,1,3-.91,2.55,2.55,0,0,1,1.74,1.21,12.91,12.91,0,0,1,1.17,2.56c.76,2,1.55,4.13,3.92,4.34a3.5,3.5,0,0,0,1.63-.36,6.54,6.54,0,0,1,1-.34A9.46,9.46,0,0,1,476.4,268Z"/><path class="cls-1" d="M488.37,278.44a1.86,1.86,0,0,1-1.14-.4,3.54,3.54,0,0,1-.71-.74,1.73,1.73,0,0,0-.88-.74c-.2-.05-.41-.07-.61-.1a4.1,4.1,0,0,1-1-.19,4,4,0,0,1-2.2-2.82,9.81,9.81,0,0,1-.3-1.47,4,4,0,0,0-.78-2.28,5,5,0,0,0-2.7-1.11,9.17,9.17,0,0,0-3.43,0,5,5,0,0,0-.95.31,3.9,3.9,0,0,1-1.83.38c-2.66-.23-3.54-2.57-4.31-4.63a12.48,12.48,0,0,0-1.13-2.46,2.1,2.1,0,0,0-1.42-1,4.52,4.52,0,0,0-2.76.85l-.75.41c-2.5,1.25-5.3.66-7.69-1.61a17.41,17.41,0,0,1-3.43-5.27c-.45-.91-.91-1.86-1.45-2.74a14.31,14.31,0,0,0-5.88-5l-1.07-.56-.14-.07c-4.09-2.11-8.32-4.3-8.93-9.39-.32-2.66.41-5.26,1.13-7.78l0-.13c.1-.35.2-.69.29-1a16.6,16.6,0,0,0,.46-8.92,37.64,37.64,0,0,0-2-5.15c-1.56-3.55-3.17-7.22-2.32-11.26a23.83,23.83,0,0,1,2.46-6c.28-.54.54-1,.78-1.53,1.14-2.31,2.27-5,1.14-7.57a.78.78,0,0,1,.42-1,.68.68,0,0,1,.92.35,7.51,7.51,0,0,1,.66,3.44c-.16,2.63-1.38,4.95-2.55,7.19s-2.51,4.78-2.49,7.5c0,3,1.29,5.81,2.51,8.52a26.72,26.72,0,0,1,2.48,7.34c.39,3-.4,5.9-1.16,8.69l-.09.34c-.74,2.72-1.51,5.52-.69,8.18,1.06,3.45,4.41,5.11,7.64,6.72,1.19.59,2.31,1.15,3.33,1.79a14.6,14.6,0,0,1,5.34,5.91c.22.43.44.87.65,1.3,1.13,2.3,2.28,4.63,4.48,6a4.28,4.28,0,0,0,4,.44c.4-.17.8-.39,1.15-.58a7.12,7.12,0,0,1,2.7-1,3.91,3.91,0,0,1,3.84,2,12.89,12.89,0,0,1,.84,1.93c.6,1.62,1.36,3.62,2.53,4.09a1.57,1.57,0,0,0,1.34-.11,9.92,9.92,0,0,1,6.36-.39,6.32,6.32,0,0,1,2.72,1.27,5,5,0,0,1,1.39,3.17c.19,1.18.48,3,1.74,3.25a4.85,4.85,0,0,0,.55.08,4,4,0,0,1,1,.21,3.24,3.24,0,0,1,1.34,1.15c.11.14.38.51.52.51s0,0,.1-.07a.88.88,0,0,0,.13-.35,3.18,3.18,0,0,1,.1-.33,1.22,1.22,0,0,1,1-.83,2.71,2.71,0,0,1,1,.09,3,3,0,0,0,.53.1,2.65,2.65,0,0,0,.59-.09,5.74,5.74,0,0,1,.63-.12c.82-.07,1.23-.17,1.61-.8a7.34,7.34,0,0,0,.44-.94,6.06,6.06,0,0,1,.53-1.09,3.72,3.72,0,0,1,3.07-1.62h.09c1.2-.13,2.23-.24,2.63-1.41a4.29,4.29,0,0,0-.28-3.12.93.93,0,0,1,.45-1.21.89.89,0,0,1,.64,0,.82.82,0,0,1,.45.43,6.51,6.51,0,0,1,.62,3.33,4,4,0,0,1-1.45,2.94,4.76,4.76,0,0,1-2.55.77c-.34,0-.64.07-.93.12-1,.19-1.35.93-1.74,1.8a6.57,6.57,0,0,1-.78,1.41,3.19,3.19,0,0,1-2.41,1.15l-.63.1a4,4,0,0,1-1.66.05l-.15,0-.17,0a3.32,3.32,0,0,1-.12.39,2,2,0,0,1-1.31,1.16A2,2,0,0,1,488.37,278.44Zm-12-10.72a10.71,10.71,0,0,1,1.78.16,5.64,5.64,0,0,1,3.1,1.31,4.58,4.58,0,0,1,1,2.69,7.92,7.92,0,0,0,.27,1.34,3.39,3.39,0,0,0,1.76,2.37,3.62,3.62,0,0,0,.81.15,5.85,5.85,0,0,1,.71.12,2.27,2.27,0,0,1,1.28,1,3.58,3.58,0,0,0,.56.6,1.19,1.19,0,0,0,1,.23,1.33,1.33,0,0,0,.83-.77c0-.05.07-.22.1-.33.08-.29.09-.33.19-.41s.43-.1.82,0l.13,0a3.27,3.27,0,0,0,1.39-.06l.66-.1a2.48,2.48,0,0,0,1.94-.88,6.32,6.32,0,0,0,.69-1.25c.43-1,.88-2,2.27-2.22.33-.06.66-.1,1-.13a4,4,0,0,0,2.19-.63A3.31,3.31,0,0,0,502,268.5a5.7,5.7,0,0,0-.56-2.95c0-.05,0-.08-.12,0a.19.19,0,0,0-.1.24,5,5,0,0,1,.3,3.67c-.54,1.6-1.91,1.75-3.23,1.89h-.1a3.09,3.09,0,0,0-2.53,1.28,6.32,6.32,0,0,0-.47,1,7.65,7.65,0,0,1-.49,1.05,2.38,2.38,0,0,1-2.17,1.15,3.55,3.55,0,0,0-.47.08,3.07,3.07,0,0,1-.82.12,2.93,2.93,0,0,1-.68-.11,2,2,0,0,0-.7-.08.51.51,0,0,0-.46.38,1.28,1.28,0,0,0-.06.23,1.38,1.38,0,0,1-.3.67.83.83,0,0,1-.66.31c-.49,0-.84-.49-1.08-.8a2.43,2.43,0,0,0-1-.91,2.91,2.91,0,0,0-.81-.17,4.34,4.34,0,0,1-.63-.09c-1.74-.39-2.07-2.46-2.3-3.83a4.32,4.32,0,0,0-1.14-2.75,5.63,5.63,0,0,0-2.41-1.11,9.17,9.17,0,0,0-5.89.34,2.35,2.35,0,0,1-1.93.12c-1.46-.59-2.28-2.76-2.93-4.5a13.19,13.19,0,0,0-.78-1.81,3.18,3.18,0,0,0-3.14-1.67,6.45,6.45,0,0,0-2.43.93c-.4.22-.79.44-1.21.62a5,5,0,0,1-4.66-.49c-2.39-1.44-3.58-3.87-4.74-6.22-.22-.45-.44-.9-.67-1.33a13.84,13.84,0,0,0-5.07-5.64c-1-.62-2.1-1.17-3.27-1.75-3.37-1.68-6.86-3.41-8-7.16-.88-2.86,0-5.9.69-8.58l.09-.34c.75-2.72,1.51-5.54,1.14-8.4a26.19,26.19,0,0,0-2.42-7.14c-1.26-2.78-2.55-5.65-2.57-8.82,0-2.9,1.29-5.41,2.56-7.83,1.15-2.18,2.32-4.43,2.47-6.9a6.73,6.73,0,0,0-.58-3.08.09.09,0,0,0,0,.08c1.2,2.73.16,5.54-1.15,8.18-.23.48-.48,1-.72,1.43l-.06.11a23.35,23.35,0,0,0-2.4,5.84c-.8,3.81.76,7.37,2.27,10.81a38.24,38.24,0,0,1,2,5.26,17.18,17.18,0,0,1-.46,9.3c-.1.38-.21.76-.32,1.14-.7,2.48-1.42,5-1.11,7.53.57,4.71,4.62,6.8,8.54,8.82.41.21.82.42,1.21.64a14.86,14.86,0,0,1,6.17,5.28,30.63,30.63,0,0,1,1.47,2.77,17.19,17.19,0,0,0,3.29,5.09c2.16,2,4.66,2.58,6.86,1.48l.69-.37a5.08,5.08,0,0,1,3.25-1,2.81,2.81,0,0,1,1.93,1.33,14,14,0,0,1,1.2,2.61c.77,2,1.49,4,3.69,4.16a3.25,3.25,0,0,0,1.5-.33,6.84,6.84,0,0,1,1.08-.36A9.9,9.9,0,0,1,476.4,267.72Z"/><path class="cls-1" d="M435.79,188.1c-1.07-1.75-.49-3.77.38-5.47a38.69,38.69,0,0,1,4-6,30.25,30.25,0,0,0,3.76-5.77,7,7,0,0,0,.57-5.33c-.57-1.48-1.34-2.81-.8-4.46a3.26,3.26,0,0,1,2.32-1.91,20.07,20.07,0,0,0,2.93-1.06,5.27,5.27,0,0,0,2.33-2.68c1.09-2.63.64-5.66,1.84-8.26.78-1.67,2.31-2.49,3.81-3.41a8.69,8.69,0,0,0,3.24-3.24c1.69-3.11,1.53-7,3.89-9.74,1.1-1.28,2.73-2.33,4.46-1.77,1.27.41,2.19,1.5,3.21,2.31a4.53,4.53,0,0,0,3.15,1.13,6.17,6.17,0,0,0,3.86-2.17,19.67,19.67,0,0,1,9.07-5.78,8.7,8.7,0,0,1,5,.13,10.55,10.55,0,0,1,4.11,3.11,25.41,25.41,0,0,0,3.25,3.31,8,8,0,0,0,4.45,1.63c3.47.22,7-1,10.2.88,2.28,1.37,3.88,3.65,5.46,5.73s3.07,4.08,5.25,5.35c2.8,1.63,5.72,1,8.67.13,1.85-.55,3.77-1.06,5.67-.46a10.57,10.57,0,0,1,4.28,3,17.51,17.51,0,0,1,4.79,8.55c.54,2.55.48,5.17,1,7.72a9.3,9.3,0,0,0,3.57,6,23.54,23.54,0,0,0,4.38,2.18,10.75,10.75,0,0,1,3.24,2.26,11,11,0,0,1,2.77,6.19,44.43,44.43,0,0,1,.25,6.21c0,1.37,0,3.17.87,4.29a3.84,3.84,0,0,0,2.77,1.07,25.67,25.67,0,0,0,3.92-.09,12.32,12.32,0,0,1,3.43,0,8.07,8.07,0,0,1,3.29,1.56c4,3.15,5.21,9.31,3.26,13.9a10.59,10.59,0,0,1-2.32,3.41,23,23,0,0,0-3.19,3.77,30.5,30.5,0,0,0-4,9.62,51.34,51.34,0,0,0-.93,5.07c-.11.85-.21,1.7-.29,2.55a4.44,4.44,0,0,1-.42,2.1c-.53.78-1.66.32-2.37.06-1.11-.4-2.16-1-3.3-1.28-1.88-.56-3.84-.19-4.33,1.93-.16.7-.15,1.61-.72,2.13a3.18,3.18,0,0,1-2.71.41c-1.31-.22-3.5-1.05-4.44.37-.81,1.21.39,2.91,1,3.93.48.81,2.18,3,1.24,3.91-.35.35-.6.29-1,.16a4.61,4.61,0,0,0-1.61-.22,4.85,4.85,0,0,0-2.37.9c-.39.25-.92.77-1.43.7-1-.13-1.7-1.86-2.08-2.55a.63.63,0,0,0-.54-.31c-2.77.33-3.49,3.61-2.63,5.91.29.75,1.5.43,1.22-.33-.53-1.4-.51-4.1,1.41-4.34l-.53-.31c.89,1.6,2.28,4,4.39,2.79a12.54,12.54,0,0,1,1.93-1.14,2.92,2.92,0,0,1,1.41-.1c.6.1,1.07.45,1.67.24,4.13-1.42-1-6-1.23-8.18a.62.62,0,0,1,.12-.53.81.81,0,0,1,.34-.19c.16-.06.47-.11.25-.11a17.05,17.05,0,0,1,2.81.49c1.89.32,3.86-.16,4.37-2.21.17-.68.14-1.64.71-2.14.8-.69,2.12-.24,3,.07,1.62.59,4.44,2.52,6.08,1.07,1-.86.93-2.32,1-3.49.19-1.83.45-3.64.82-5.44a31.28,31.28,0,0,1,3.89-10.34,21.4,21.4,0,0,1,3.37-4,11.81,11.81,0,0,0,2.39-3.3,13.5,13.5,0,0,0,1.09-7.8c-.71-4.71-4.16-9.88-9.34-10.18a38.11,38.11,0,0,0-4,.18,10.05,10.05,0,0,1-3.79-.21c-1.31-.48-1.1-2.63-1.11-3.76,0-4.46.1-9.19-2.91-12.84a11.14,11.14,0,0,0-3-2.52c-1.46-.85-3.1-1.28-4.55-2.16a8.24,8.24,0,0,1-3.82-6.21c-.41-2.67-.41-5.38-1.11-8a19.19,19.19,0,0,0-5.19-8.47,12.29,12.29,0,0,0-4.18-3,8.59,8.59,0,0,0-5.19-.13c-1.91.47-3.78,1.31-5.77,1.41a6.84,6.84,0,0,1-4-1.07c-4.51-2.84-6.22-8.76-11.14-11.12-3.32-1.59-6.83-.3-10.31-.62-3.87-.34-5.63-3.77-8.25-6.11-5.6-5-13.2-.81-17.63,3.68-1.21,1.23-2.74,2.71-4.64,2.21-1.3-.35-2.24-1.5-3.27-2.31A4.78,4.78,0,0,0,467,128a6,6,0,0,0-3.74,2.34c-2.31,2.83-2.19,6.59-3.89,9.71s-5.71,3.56-7.15,6.84c-1.18,2.67-.67,5.81-1.93,8.45-1.18,2.47-3.76,2.28-5.85,3.48a3.57,3.57,0,0,0-1.75,2.36,6.59,6.59,0,0,0,.8,4.34c.93,1.91.18,4-.73,5.81a56.06,56.06,0,0,1-3.91,6.19,27.2,27.2,0,0,0-3.5,6,5.18,5.18,0,0,0,.2,4.68.13.13,0,1,0,.23-.13Z"/><path class="cls-1" d="M543.89,250.46a.93.93,0,0,1-.89-.6,5.53,5.53,0,0,1,.31-4.64,3.36,3.36,0,0,1,2.55-1.64.86.86,0,0,1,.81.45l.18.35c.36.68,1,2,1.7,2.06a1.65,1.65,0,0,0,1-.46,2.17,2.17,0,0,1,.29-.2,5.08,5.08,0,0,1,2.5-.94,4.76,4.76,0,0,1,1.72.22c.39.13.5.15.74-.08.63-.64-.43-2.25-1-3.12-.12-.18-.23-.33-.3-.46l-.18-.3c-.66-1.07-1.64-2.68-.81-3.93s2.68-.93,4-.63l.72.15a3,3,0,0,0,2.48-.34,2.47,2.47,0,0,0,.54-1.44c0-.19.06-.38.1-.55a2.87,2.87,0,0,1,1.35-2,4.25,4.25,0,0,1,3.33-.19,20.48,20.48,0,0,1,2,.76c.44.18.88.37,1.32.53l.12,0c.82.3,1.58.53,1.94,0a3.2,3.2,0,0,0,.33-1.54l0-.44c.08-.85.18-1.71.3-2.56a50,50,0,0,1,.93-5.09,30.19,30.19,0,0,1,4-9.71,23.17,23.17,0,0,1,3.22-3.82,10.13,10.13,0,0,0,2.27-3.32c2-4.64.57-10.61-3.18-13.58a7.8,7.8,0,0,0-3.17-1.5,9.43,9.43,0,0,0-2.76,0l-.6,0-.35,0a24.24,24.24,0,0,1-3.62.06,4.12,4.12,0,0,1-3-1.16c-.91-1.11-.92-2.79-.92-4.14v-1.61a33.24,33.24,0,0,0-.24-4.88,10.78,10.78,0,0,0-2.7-6.05,10.59,10.59,0,0,0-3.16-2.2c-.42-.2-.85-.38-1.27-.56a14.9,14.9,0,0,1-3.16-1.65,9.59,9.59,0,0,1-3.68-6.14c-.23-1.23-.33-2.48-.44-3.7a32.33,32.33,0,0,0-.51-4,17.21,17.21,0,0,0-4.72-8.42,10.43,10.43,0,0,0-4.16-3c-1.76-.56-3.54-.12-5.52.46-2.89.86-6,1.55-8.88-.15a19.05,19.05,0,0,1-5.23-5.28l-.53-.7a18.83,18.83,0,0,0-4.95-5.11c-2.1-1.26-4.34-1.1-6.72-.93a24.9,24.9,0,0,1-3.35.09,8.26,8.26,0,0,1-4.61-1.68,20.34,20.34,0,0,1-2.71-2.7c-.19-.21-.38-.43-.58-.64a10.26,10.26,0,0,0-4-3,8.52,8.52,0,0,0-4.87-.12,19.24,19.24,0,0,0-8.94,5.7,6.44,6.44,0,0,1-4,2.26,4.7,4.7,0,0,1-3.33-1.2c-.3-.22-.58-.48-.87-.73a6.74,6.74,0,0,0-2.27-1.53c-1.91-.63-3.54,1-4.16,1.69a13,13,0,0,0-2.36,5.44,19.35,19.35,0,0,1-1.49,4.25,8.93,8.93,0,0,1-3.35,3.34l-.38.24a7.58,7.58,0,0,0-3.32,3.06,13.89,13.89,0,0,0-.95,4.18,15.6,15.6,0,0,1-.88,4.07,5.54,5.54,0,0,1-2.46,2.81,12.16,12.16,0,0,1-2.12.81c-.28.08-.57.17-.85.27a3,3,0,0,0-2.15,1.74,4.94,4.94,0,0,0,.51,3.57c.1.24.19.47.28.71.6,1.55.41,3.36-.57,5.53a29.33,29.33,0,0,1-3.66,5.66l-.24.32a38.31,38.31,0,0,0-3.88,5.77c-1.09,2.15-1.21,3.86-.38,5.21h0a.4.4,0,0,1-.13.55.42.42,0,0,1-.57-.13,5.36,5.36,0,0,1-.23-4.93,26.72,26.72,0,0,1,3.37-5.84l.16-.23a54.54,54.54,0,0,0,3.9-6.16c.76-1.47,1.66-3.65.73-5.56a6.8,6.8,0,0,1-.83-4.52,3.87,3.87,0,0,1,1.88-2.54,11.7,11.7,0,0,1,2.23-.9c1.43-.47,2.78-.91,3.52-2.46a13.69,13.69,0,0,0,1-4.23,14.81,14.81,0,0,1,.94-4.22,9,9,0,0,1,3.76-3.72,9.18,9.18,0,0,0,3.4-3.14,19.22,19.22,0,0,0,1.49-4.15,14.12,14.12,0,0,1,2.43-5.59,6.26,6.26,0,0,1,3.91-2.44,5,5,0,0,1,3.8,1.26c.28.22.55.46.83.71a6.08,6.08,0,0,0,2.33,1.54c1.66.45,3-.75,4.38-2.13a21.65,21.65,0,0,1,8.48-5.47,9.4,9.4,0,0,1,9.52,1.78,25.23,25.23,0,0,1,2,2.1c1.72,1.9,3.35,3.7,6.06,3.94a22.72,22.72,0,0,0,3.69-.07c2.22-.17,4.51-.34,6.71.71,2.7,1.29,4.46,3.64,6.16,5.91a20.25,20.25,0,0,0,5,5.22,6.45,6.45,0,0,0,3.8,1,15.68,15.68,0,0,0,3.8-.84c.62-.2,1.27-.4,1.91-.56a8.82,8.82,0,0,1,5.35.14,12.07,12.07,0,0,1,4.28,3,19.11,19.11,0,0,1,5.27,8.59,31.89,31.89,0,0,1,.77,5.07c.1,1,.19,2,.34,3a8,8,0,0,0,3.7,6,16.83,16.83,0,0,0,2.31,1.1,18.05,18.05,0,0,1,2.23,1.05,11.26,11.26,0,0,1,3.1,2.58c2.92,3.54,2.94,8,3,12.32v1.15c0,1.08,0,2.7.93,3.05a8.32,8.32,0,0,0,3.24.22l.43,0,1.2-.09a22.24,22.24,0,0,1,2.83-.09c3.94.23,8.63,4,9.6,10.41a13.64,13.64,0,0,1-1.12,8,11.43,11.43,0,0,1-2.44,3.37,21.38,21.38,0,0,0-3.32,4A30.52,30.52,0,0,0,573.31,226c-.34,1.69-.62,3.51-.81,5.4,0,.18,0,.35,0,.54a4.36,4.36,0,0,1-1.08,3.13c-1.43,1.26-3.52.29-5.19-.5-.43-.2-.83-.39-1.17-.51-.7-.25-2-.72-2.7-.12a2.35,2.35,0,0,0-.51,1.39,5.51,5.51,0,0,1-.11.61c-.57,2.27-2.79,2.74-4.69,2.41-.3,0-.61-.13-.92-.2a9.56,9.56,0,0,0-1.7-.28l-.12,0-.17.06a.7.7,0,0,0-.23.11c-.06.07-.07.12-.05.32a7.78,7.78,0,0,0,1.21,2.52c.93,1.52,2,3.24,1.5,4.55a2.48,2.48,0,0,1-1.67,1.41,1.94,1.94,0,0,1-1.29-.1,3.57,3.57,0,0,0-.52-.14,2.59,2.59,0,0,0-1.27.1,4.78,4.78,0,0,0-1.18.66c-.23.16-.46.31-.7.45a2.35,2.35,0,0,1-1.84.28c-1.15-.32-2-1.58-2.6-2.59a1.39,1.39,0,0,0-.61.57,4.23,4.23,0,0,0-.11,3.26.79.79,0,0,1-.48,1.07A1.13,1.13,0,0,1,543.89,250.46Zm1-6a2.93,2.93,0,0,0-1.08,1,5,5,0,0,0-.26,4.15.39.39,0,0,0,.53.22.25.25,0,0,0,.17-.36,4.75,4.75,0,0,1,.15-3.73,2,2,0,0,1,.8-.77l0-.1Zm1.14.89a4.62,4.62,0,0,0,2.2,2.21,1.8,1.8,0,0,0,1.42-.23,7.48,7.48,0,0,0,.66-.43,5.53,5.53,0,0,1,1.31-.73,3.2,3.2,0,0,1,1.54-.11,3.62,3.62,0,0,1,.61.16,1.39,1.39,0,0,0,.93.09,2,2,0,0,0,1.34-1.07c.38-1.06-.6-2.66-1.46-4.07a8.27,8.27,0,0,1-1.29-2.75.88.88,0,0,1,.18-.74,1,1,0,0,1,.42-.26l.26-.08.08,0,0,.1v-.14h0a9.41,9.41,0,0,1,1.94.3l.89.19c.8.14,3.47.41,4.07-2,0-.17.07-.36.1-.56a2.69,2.69,0,0,1,.69-1.71c.94-.83,2.44-.28,3.25,0,.36.14.77.33,1.21.53,1.53.72,3.44,1.61,4.59.59a3.91,3.91,0,0,0,.9-2.77c0-.18,0-.37.05-.54a54.08,54.08,0,0,1,.82-5.46,31.29,31.29,0,0,1,3.93-10.44,21.79,21.79,0,0,1,3.41-4.09,11.52,11.52,0,0,0,2.33-3.21,13.1,13.1,0,0,0,1.06-7.65c-.68-4.61-4.1-9.65-9.08-9.94a21.22,21.22,0,0,0-2.76.09c-.4,0-.8.07-1.21.09l-.42,0a8.8,8.8,0,0,1-3.47-.25c-1.34-.49-1.31-2.35-1.3-3.57,0-.16,0-.31,0-.45v-.7c0-4.22,0-8.58-2.84-12a11.37,11.37,0,0,0-2.95-2.46,19.41,19.41,0,0,0-2.17-1,18,18,0,0,1-2.39-1.14,8.51,8.51,0,0,1-3.95-6.41c-.15-1-.25-2-.35-3a31.54,31.54,0,0,0-.75-5,18.68,18.68,0,0,0-5.13-8.35,11.82,11.82,0,0,0-4.08-2.9,8.25,8.25,0,0,0-5-.12c-.62.15-1.26.35-1.88.54a15.34,15.34,0,0,1-3.93.87,7,7,0,0,1-4.12-1.11,20.24,20.24,0,0,1-5.16-5.36c-1.66-2.21-3.38-4.51-6-5.74-2.06-1-4.18-.83-6.43-.66a23.77,23.77,0,0,1-3.78.07c-2.92-.26-4.7-2.23-6.42-4.12a24.31,24.31,0,0,0-2-2.06c-3.34-3-9.87-3.82-17.24,3.67-1.12,1.13-2.8,2.83-4.91,2.27a6.44,6.44,0,0,1-2.56-1.66c-.27-.24-.53-.48-.81-.69a4.48,4.48,0,0,0-3.38-1.15,5.85,5.85,0,0,0-3.56,2.24,13.69,13.69,0,0,0-2.32,5.39,19.42,19.42,0,0,1-1.54,4.28,9.75,9.75,0,0,1-3.58,3.33c-1.46,1-2.84,1.86-3.56,3.49a14.4,14.4,0,0,0-.9,4.06,13.71,13.71,0,0,1-1,4.39c-.84,1.77-2.36,2.27-3.84,2.75a11.35,11.35,0,0,0-2.12.86,3.31,3.31,0,0,0-1.62,2.17,6.33,6.33,0,0,0,.78,4.17c1,2.13.08,4.48-.73,6.05a51.37,51.37,0,0,1-3.53,5.65l.36-.48.24-.31a29.24,29.24,0,0,0,3.6-5.56,6.54,6.54,0,0,0,.56-5.11c-.09-.23-.18-.46-.28-.69a5.46,5.46,0,0,1-.52-4,3.53,3.53,0,0,1,2.49-2.08l.87-.28a11.21,11.21,0,0,0,2-.77,5,5,0,0,0,2.21-2.54,14.83,14.83,0,0,0,.84-3.91,14.33,14.33,0,0,1,1-4.35,8.08,8.08,0,0,1,3.53-3.3l.38-.24a8.31,8.31,0,0,0,3.15-3.14,18,18,0,0,0,1.45-4.12,13.48,13.48,0,0,1,2.48-5.66c.68-.8,2.51-2.58,4.75-1.85a7.08,7.08,0,0,1,2.46,1.64c.28.24.55.49.83.71a4.17,4.17,0,0,0,3,1.08,5.88,5.88,0,0,0,3.68-2.09,19.75,19.75,0,0,1,9.2-5.85,8.93,8.93,0,0,1,5.19.13,10.67,10.67,0,0,1,4.22,3.19c.2.21.39.43.58.65a19.15,19.15,0,0,0,2.63,2.62,7.69,7.69,0,0,0,4.31,1.57,24,24,0,0,0,3.28-.09c2.36-.17,4.8-.34,7,1a19.35,19.35,0,0,1,5.11,5.25l.53.69a18.52,18.52,0,0,0,5.07,5.14c2.73,1.59,5.55,1,8.45.1,2.06-.6,3.93-1.06,5.84-.45a10.83,10.83,0,0,1,4.39,3.12,17.74,17.74,0,0,1,4.86,8.69,31.69,31.69,0,0,1,.52,4.07,34.61,34.61,0,0,0,.44,3.65,9,9,0,0,0,3.46,5.8,14.61,14.61,0,0,0,3,1.58c.43.19.87.37,1.29.57a10.35,10.35,0,0,1,6.18,8.66,34.68,34.68,0,0,1,.24,5v1.6c0,1.27,0,2.84.8,3.8a3.56,3.56,0,0,0,2.58,1,23.12,23.12,0,0,0,3.53-.06l.35,0,.6,0a9.79,9.79,0,0,1,2.91.05,8.32,8.32,0,0,1,3.41,1.61c3.93,3.12,5.4,9.37,3.34,14.23a10.81,10.81,0,0,1-2.39,3.49,23,23,0,0,0-3.15,3.73,29.78,29.78,0,0,0-3.93,9.54,49,49,0,0,0-.93,5c-.11.84-.21,1.69-.29,2.54l0,.41a3.5,3.5,0,0,1-.43,1.82c-.62.92-1.85.47-2.58.2l-.11,0q-.69-.25-1.35-.54a18.9,18.9,0,0,0-1.94-.74,3.69,3.69,0,0,0-2.89.14,2.34,2.34,0,0,0-1.09,1.59c0,.16-.07.34-.1.52a2.82,2.82,0,0,1-.7,1.75,3.42,3.42,0,0,1-2.95.48l-.75-.16c-1.22-.27-2.74-.61-3.42.41s.21,2.33.83,3.33l.18.31c.08.12.17.27.29.44.7,1.07,1.87,2.86.92,3.81a1.1,1.1,0,0,1-1.3.22,4.06,4.06,0,0,0-1.51-.2,4.51,4.51,0,0,0-2.24.85l-.26.18a2,2,0,0,1-1.36.56c-.74-.1-1.33-.93-1.77-1.71Zm-.88-1,1.56.89c-.12-.2-.22-.41-.32-.59l-.17-.34a.32.32,0,0,0-.27-.16A3,3,0,0,0,545.12,244.33Z"/><path class="cls-1" d="M543.89,250.27a.73.73,0,0,1-.71-.48,5.33,5.33,0,0,1,.29-4.47,3.17,3.17,0,0,1,2.41-1.55.66.66,0,0,1,.62.35c.06.09.12.21.19.34.39.77,1.06,2.06,1.83,2.16a1.76,1.76,0,0,0,1.1-.49l.27-.2a4.93,4.93,0,0,1,2.42-.9,4.54,4.54,0,0,1,1.64.21c.41.13.62.18.93-.13.74-.74-.33-2.37-1-3.35l-.29-.45c0-.1-.12-.2-.18-.31-.63-1-1.58-2.58-.82-3.72s2.47-.86,3.8-.56l.73.15a3.14,3.14,0,0,0,2.64-.38,2.64,2.64,0,0,0,.6-1.55c0-.19.05-.37.09-.54a2.75,2.75,0,0,1,1.26-1.83,4.09,4.09,0,0,1,3.19-.16,19.42,19.42,0,0,1,2,.74c.43.19.88.37,1.33.54l.11,0c.72.26,1.7.62,2.16-.07a3.27,3.27,0,0,0,.37-1.63l0-.43c.08-.84.18-1.7.29-2.55a49.73,49.73,0,0,1,.94-5.08,30,30,0,0,1,4-9.65,23.27,23.27,0,0,1,3.2-3.79,10.31,10.31,0,0,0,2.3-3.37c2-4.72.58-10.78-3.23-13.8a8.08,8.08,0,0,0-3.25-1.55,10.16,10.16,0,0,0-2.81,0l-.6,0-.35,0a23.86,23.86,0,0,1-3.59.07,4,4,0,0,1-2.83-1.1c-.87-1.06-.88-2.71-.89-4v-1.6a33.65,33.65,0,0,0-.24-4.91,11,11,0,0,0-2.75-6.15,10.81,10.81,0,0,0-3.22-2.24c-.42-.2-.86-.38-1.28-.56a15.25,15.25,0,0,1-3.12-1.63,9.37,9.37,0,0,1-3.6-6,35.68,35.68,0,0,1-.44-3.69,32.89,32.89,0,0,0-.51-4,17.39,17.39,0,0,0-4.78-8.51,10.47,10.47,0,0,0-4.23-3c-1.81-.57-3.62-.13-5.63.46-2.86.84-5.88,1.53-8.73-.14a18.83,18.83,0,0,1-5.18-5.23l-.1-.13-.43-.57a19.16,19.16,0,0,0-5-5.15c-2.15-1.29-4.42-1.13-6.83-1a24.61,24.61,0,0,1-3.33.09,8.11,8.11,0,0,1-4.51-1.64,20.49,20.49,0,0,1-2.68-2.67l-.58-.65a10.42,10.42,0,0,0-4.07-3.09,8.64,8.64,0,0,0-5-.12,19.47,19.47,0,0,0-9,5.75,6.23,6.23,0,0,1-3.91,2.2,4.51,4.51,0,0,1-3.21-1.15c-.29-.23-.57-.48-.85-.73a7,7,0,0,0-2.34-1.57c-2-.66-3.72,1-4.36,1.74a13.37,13.37,0,0,0-2.4,5.52,18.82,18.82,0,0,1-1.48,4.21,8.7,8.7,0,0,1-3.28,3.27l-.38.24a7.7,7.7,0,0,0-3.39,3.14,14.37,14.37,0,0,0-1,4.24,14.68,14.68,0,0,1-.87,4A5.27,5.27,0,0,1,449,158.2a10.71,10.71,0,0,1-2.08.79l-.86.28a3.18,3.18,0,0,0-2.27,1.86,5.1,5.1,0,0,0,.52,3.71l.28.69c.57,1.51.39,3.27-.57,5.39a29.06,29.06,0,0,1-3.65,5.63l-.23.31a39.05,39.05,0,0,0-3.9,5.81c-1.12,2.21-1.24,4-.37,5.39h0a.21.21,0,0,1-.07.29.23.23,0,0,1-.31-.07,5.18,5.18,0,0,1-.21-4.77,26.37,26.37,0,0,1,3.35-5.79l.18-.26a56.89,56.89,0,0,0,3.89-6.15c.77-1.51,1.69-3.75.73-5.73a6.6,6.6,0,0,1-.81-4.4,3.61,3.61,0,0,1,1.79-2.41,11.11,11.11,0,0,1,2.19-.9c1.47-.48,2.85-.93,3.63-2.55a13.75,13.75,0,0,0,1-4.29,14.66,14.66,0,0,1,.93-4.16,8.81,8.81,0,0,1,3.69-3.64A9.51,9.51,0,0,0,459.3,140a19.27,19.27,0,0,0,1.51-4.19,14.23,14.23,0,0,1,2.39-5.53,6.16,6.16,0,0,1,3.79-2.37,4.87,4.87,0,0,1,3.66,1.22c.28.22.55.47.82.71a6.09,6.09,0,0,0,2.41,1.58c1.91.51,3.44-1,4.56-2.18a21.46,21.46,0,0,1,8.41-5.42,9.19,9.19,0,0,1,9.33,1.74,24.87,24.87,0,0,1,2,2.08c1.75,1.93,3.4,3.76,6.18,4a23.22,23.22,0,0,0,3.73-.08c2.19-.16,4.46-.33,6.61.7,2.65,1.27,4.4,3.6,6.09,5.86a20.43,20.43,0,0,0,5.06,5.26,6.65,6.65,0,0,0,3.91,1.06,15.35,15.35,0,0,0,3.84-.85c.62-.2,1.27-.4,1.91-.55a8.55,8.55,0,0,1,5.24.13,12.2,12.2,0,0,1,4.21,3,19,19,0,0,1,5.22,8.51,31.33,31.33,0,0,1,.76,5c.1,1,.2,2,.35,3a8.17,8.17,0,0,0,3.78,6.15,16.12,16.12,0,0,0,2.34,1.11,19.28,19.28,0,0,1,2.21,1,11.41,11.41,0,0,1,3.05,2.54c2.87,3.49,2.9,7.92,2.92,12.2v1.15c0,1.13,0,2.83,1,3.23a8.63,8.63,0,0,0,3.33.23l.42,0,1.21-.08a20.11,20.11,0,0,1,2.8-.09c5.17.29,8.71,5.5,9.42,10.24a13.38,13.38,0,0,1-1.1,7.86,11.53,11.53,0,0,1-2.4,3.32,21.46,21.46,0,0,0-3.35,4,30.6,30.6,0,0,0-3.88,10.31c-.35,1.72-.62,3.49-.82,5.42,0,.18,0,.36,0,.54a4.27,4.27,0,0,1-1,3c-1.33,1.18-3.36.23-5-.53-.43-.2-.84-.39-1.19-.51-.73-.27-2.1-.77-2.88-.09a2.37,2.37,0,0,0-.57,1.5c0,.21-.07.41-.11.59-.46,1.83-2.13,2.68-4.48,2.27-.29,0-.59-.12-.91-.19a8.6,8.6,0,0,0-1.77-.29l-.14,0-.19.06h0a.72.72,0,0,0-.27.16.54.54,0,0,0-.1.46,8,8,0,0,0,1.24,2.6c.91,1.48,1.93,3.16,1.49,4.38a2.27,2.27,0,0,1-1.56,1.3,1.79,1.79,0,0,1-1.17-.1,3.17,3.17,0,0,0-.55-.15,2.71,2.71,0,0,0-1.36.11,5,5,0,0,0-1.22.68c-.22.15-.45.31-.69.45a2.18,2.18,0,0,1-1.7.26c-1.13-.32-2-1.64-2.57-2.65a1.61,1.61,0,0,0-.85.72,4.37,4.37,0,0,0-.12,3.42.61.61,0,0,1-.38.82A.93.93,0,0,1,543.89,250.27Zm2-6.33h0a3,3,0,0,0-2.28,1.47,5.25,5.25,0,0,0-.28,4.32.6.6,0,0,0,.78.33.43.43,0,0,0,.27-.6,4.57,4.57,0,0,1,.14-3.57,1.73,1.73,0,0,1,.91-.78l-.16-.28-.15-.28,1,.59-.26,0-.2,0c.56,1,1.39,2.23,2.45,2.53a2,2,0,0,0,1.56-.24l.68-.44a5.19,5.19,0,0,1,1.26-.71,3.08,3.08,0,0,1,1.45-.11,3.28,3.28,0,0,1,.58.16,1.61,1.61,0,0,0,1.06.09,2.1,2.1,0,0,0,1.44-1.19c.41-1.14-.58-2.78-1.47-4.23a8,8,0,0,1-1.26-2.67.71.71,0,0,1,.13-.6,1,1,0,0,1,.34-.2h0l.21-.07h.07v0h0a8.62,8.62,0,0,1,1.9.3c.31.07.61.14.9.19.84.14,3.64.42,4.28-2.14,0-.18.07-.37.1-.58a2.52,2.52,0,0,1,.64-1.6c.85-.75,2.28-.23,3,.05.36.13.77.32,1.2.52,1.58.74,3.55,1.66,4.8.56a4.13,4.13,0,0,0,1-2.89c0-.19,0-.37,0-.54a50.8,50.8,0,0,1,.82-5.45,31,31,0,0,1,3.9-10.37,21.44,21.44,0,0,1,3.38-4.06,11.54,11.54,0,0,0,2.37-3.26,13.3,13.3,0,0,0,1.08-7.76c-.7-4.68-4.18-9.81-9.26-10.1a21.52,21.52,0,0,0-2.78.09l-1.21.09-.42,0a8.62,8.62,0,0,1-3.4-.24c-1.21-.44-1.18-2.22-1.17-3.39,0-.16,0-.31,0-.45v-.7c0-4.25-.06-8.65-2.89-12.08a11.23,11.23,0,0,0-3-2.51,18.85,18.85,0,0,0-2.19-1A18.21,18.21,0,0,1,555,169a8.31,8.31,0,0,1-3.86-6.28c-.16-1-.26-2-.35-3a30.64,30.64,0,0,0-.76-5,18.78,18.78,0,0,0-5.18-8.44,11.82,11.82,0,0,0-4.15-2.95,8.35,8.35,0,0,0-5.13-.12c-.63.15-1.28.35-1.9.54a15,15,0,0,1-3.88.86,6.74,6.74,0,0,1-4-1.08,20.49,20.49,0,0,1-5.11-5.31c-1.68-2.24-3.41-4.55-6-5.8-2.12-1-4.26-.85-6.53-.68a23.55,23.55,0,0,1-3.76.07c-2.84-.25-4.59-2.19-6.29-4.06a26.21,26.21,0,0,0-2-2.07c-2.51-2.24-5.6-2.82-9.17-1.7a21.17,21.17,0,0,0-8.34,5.37c-1.14,1.17-2.71,2.76-4.72,2.23a6.32,6.32,0,0,1-2.48-1.62c-.28-.25-.54-.48-.82-.7a4.62,4.62,0,0,0-3.52-1.18,6,6,0,0,0-3.68,2.3,14,14,0,0,0-2.36,5.46,19.36,19.36,0,0,1-1.52,4.24,9.67,9.67,0,0,1-3.53,3.26,8.77,8.77,0,0,0-3.62,3.57,14.22,14.22,0,0,0-.91,4.12,13.82,13.82,0,0,1-1,4.33c-.8,1.69-2.22,2.16-3.73,2.65a11.4,11.4,0,0,0-2.16.88,3.45,3.45,0,0,0-1.7,2.3,6.45,6.45,0,0,0,.79,4.28c1,2.06.07,4.35-.73,5.89a57.24,57.24,0,0,1-3.9,6.17l-.18.26a26.48,26.48,0,0,0-3.33,5.76,5,5,0,0,0,.2,4.61,0,0,0,0,0,.06,0s0,0,0,0h0c-.9-1.47-.78-3.29.37-5.56a38.88,38.88,0,0,1,3.91-5.84l.23-.3a29.36,29.36,0,0,0,3.63-5.6,6.78,6.78,0,0,0,.57-5.26l-.28-.69a5.19,5.19,0,0,1-.52-3.83,3.38,3.38,0,0,1,2.37-2l.87-.27a11.08,11.08,0,0,0,2.05-.78,5.17,5.17,0,0,0,2.29-2.63,15.48,15.48,0,0,0,.86-4,13.82,13.82,0,0,1,1-4.29,7.79,7.79,0,0,1,3.45-3.22l.38-.24a8.46,8.46,0,0,0,3.22-3.21,18.52,18.52,0,0,0,1.46-4.16,13.53,13.53,0,0,1,2.44-5.59c.66-.77,2.42-2.49,4.55-1.79a7,7,0,0,1,2.4,1.6c.27.24.55.49.84.72a4.34,4.34,0,0,0,3.08,1.12,6,6,0,0,0,3.8-2.15,19.62,19.62,0,0,1,9.12-5.8,8.8,8.8,0,0,1,5.08.13,10.53,10.53,0,0,1,4.14,3.14c.2.21.39.43.58.64a20.18,20.18,0,0,0,2.66,2.65,7.94,7.94,0,0,0,4.41,1.61,24.36,24.36,0,0,0,3.31-.09c2.32-.17,4.73-.34,6.93,1a19.09,19.09,0,0,1,5.05,5.2l.43.56.1.14a18.71,18.71,0,0,0,5.12,5.18c2.8,1.63,5.66,1,8.6.12,2-.59,3.87-1,5.73-.45a10.59,10.59,0,0,1,4.31,3.07,17.48,17.48,0,0,1,4.82,8.6,33.21,33.21,0,0,1,.51,4.05c.11,1.21.21,2.45.44,3.66a9.22,9.22,0,0,0,3.54,5.92,14.56,14.56,0,0,0,3.08,1.61c.42.18.86.36,1.28.56a10.12,10.12,0,0,1,6.07,8.52,34.2,34.2,0,0,1,.24,4.94c0,.43,0,.85,0,1.28v.32c0,1.3,0,2.9.84,3.92a3.74,3.74,0,0,0,2.71,1,23.6,23.6,0,0,0,3.57-.06l.34,0,.6,0a9.78,9.78,0,0,1,2.86,0,8.26,8.26,0,0,1,3.33,1.58c3.87,3.06,5.32,9.22,3.29,14a10.82,10.82,0,0,1-2.35,3.43,23,23,0,0,0-3.18,3.76,29.77,29.77,0,0,0-4,9.59,47.28,47.28,0,0,0-.93,5.06c-.12.85-.22,1.71-.29,2.55a2.77,2.77,0,0,0,0,.42,3.57,3.57,0,0,1-.4,1.72c-.55.8-1.64.4-2.37.13l-.11,0c-.45-.16-.9-.35-1.34-.54a20.64,20.64,0,0,0-2-.74,3.92,3.92,0,0,0-3,.15,2.58,2.58,0,0,0-1.18,1.72c0,.16-.06.34-.09.53a2.75,2.75,0,0,1-.65,1.65,3.28,3.28,0,0,1-2.79.42c-.22,0-.47-.09-.74-.15-1.28-.28-2.86-.64-3.61.49s.18,2.48.82,3.53l.18.31c.07.12.17.27.29.45.67,1,1.79,2.72.94,3.56a.89.89,0,0,1-1.1.18,4.48,4.48,0,0,0-1.58-.21,4.8,4.8,0,0,0-2.33.88,2.22,2.22,0,0,0-.27.19,1.92,1.92,0,0,1-1.22.53c-.86-.12-1.53-1.41-2-2.26l-.18-.34A.54.54,0,0,0,545.93,243.94Zm-.34,1.08,0,0h0Z"/><path class="cls-1" d="M543.89,250.55a1,1,0,0,1-1-.66,5.61,5.61,0,0,1,.32-4.72,3.53,3.53,0,0,1,1.23-1.23l-.06-.12.14.08a3.67,3.67,0,0,1,1.3-.41.94.94,0,0,1,.89.49c.06.1.12.22.19.36.35.67,1,1.93,1.63,2,.25,0,.59-.22.89-.44l.29-.21a5.23,5.23,0,0,1,2.55-.95A4.7,4.7,0,0,1,554,245c.39.12.46.13.65-.07.59-.58-.44-2.15-1-3-.12-.18-.22-.34-.29-.46l-.19-.31c-.66-1.08-1.67-2.72-.81-4s2.75-1,4.09-.68l.72.15a2.9,2.9,0,0,0,2.4-.31,2.38,2.38,0,0,0,.51-1.39c0-.2.07-.39.11-.56a2.93,2.93,0,0,1,1.38-2,4.31,4.31,0,0,1,3.41-.2,20.48,20.48,0,0,1,2,.76c.43.18.88.37,1.32.53l.12,0c.81.3,1.51.51,1.83,0a3.1,3.1,0,0,0,.33-1.5,3.15,3.15,0,0,1,0-.44c.08-.85.18-1.71.29-2.56a50.68,50.68,0,0,1,.94-5.1,30.25,30.25,0,0,1,4-9.74,22.9,22.9,0,0,1,3.23-3.83,10.1,10.1,0,0,0,2.25-3.29c2-4.61.57-10.53-3.15-13.48a7.79,7.79,0,0,0-3.14-1.49,9.58,9.58,0,0,0-2.73,0l-.61,0-.34,0a24.35,24.35,0,0,1-3.63.06,4.16,4.16,0,0,1-3-1.2c-.94-1.13-1-2.83-1-4.19v-.33c0-.42,0-.85,0-1.28a34.46,34.46,0,0,0-.23-4.87,10.71,10.71,0,0,0-2.68-6,10.29,10.29,0,0,0-3.14-2.19q-.62-.28-1.23-.54a15.37,15.37,0,0,1-3.21-1.68,9.66,9.66,0,0,1-3.71-6.19c-.23-1.24-.34-2.49-.45-3.71a33.62,33.62,0,0,0-.5-4,17.15,17.15,0,0,0-4.71-8.38,10.09,10.09,0,0,0-4.12-3c-1.73-.54-3.5-.11-5.46.47-2.92.85-6,1.55-9-.17a19.09,19.09,0,0,1-5.26-5.3l-.53-.7a18.79,18.79,0,0,0-4.93-5.08c-2.07-1.25-4.29-1.09-6.65-.92a25.44,25.44,0,0,1-3.38.09,8.43,8.43,0,0,1-4.65-1.7,20.57,20.57,0,0,1-2.73-2.71l-.06-.07-.51-.57a10.21,10.21,0,0,0-4-3,8.27,8.27,0,0,0-4.82-.11,19.06,19.06,0,0,0-8.9,5.67,6.49,6.49,0,0,1-4.09,2.29,4.79,4.79,0,0,1-3.4-1.22c-.29-.22-.57-.48-.85-.72a6.92,6.92,0,0,0-2.25-1.53c-1.87-.6-3.47,1-4.07,1.66a13.1,13.1,0,0,0-2.34,5.41,19.06,19.06,0,0,1-1.51,4.27,9.07,9.07,0,0,1-3.37,3.38l-.39.23a7.53,7.53,0,0,0-3.28,3,14,14,0,0,0-.95,4.15,15.26,15.26,0,0,1-.88,4.09,5.58,5.58,0,0,1-2.5,2.85,11.45,11.45,0,0,1-2.12.82c-.29.08-.58.17-.86.27a3,3,0,0,0-2.1,1.68,4.82,4.82,0,0,0,.52,3.52l.28.7c.6,1.59.41,3.42-.58,5.6a29.34,29.34,0,0,1-3.68,5.69l-.23.3a39,39,0,0,0-3.87,5.77c-1.08,2.12-1.2,3.8-.39,5.12a.49.49,0,0,1-.84.52,5.43,5.43,0,0,1-.24-5,26.6,26.6,0,0,1,3.38-5.85l.18-.27a53.42,53.42,0,0,0,3.87-6.12c.75-1.45,1.64-3.61.73-5.48a6.89,6.89,0,0,1-.83-4.58,3.9,3.9,0,0,1,1.92-2.59,11.62,11.62,0,0,1,2.24-.92c1.47-.48,2.74-.9,3.47-2.41a13.9,13.9,0,0,0,1-4.2,14.62,14.62,0,0,1,.95-4.24,9,9,0,0,1,3.79-3.76,9.32,9.32,0,0,0,3.37-3.11,18.51,18.51,0,0,0,1.48-4.13,14.39,14.39,0,0,1,2.45-5.63,6.41,6.41,0,0,1,4-2.47,5.07,5.07,0,0,1,3.86,1.28c.28.22.57.47.84.72a6,6,0,0,0,2.3,1.52c1.74.46,3.21-1,4.28-2.11a21.68,21.68,0,0,1,8.53-5.49,9.48,9.48,0,0,1,9.6,1.79,26.88,26.88,0,0,1,2,2.1c1.72,1.9,3.33,3.68,6,3.92a22.6,22.6,0,0,0,3.68-.07c2.23-.17,4.54-.34,6.76.72,2.71,1.3,4.48,3.66,6.19,5.94a19.93,19.93,0,0,0,5,5.2,6.33,6.33,0,0,0,3.75,1,15,15,0,0,0,3.77-.84c.63-.19,1.28-.39,1.92-.55a8.86,8.86,0,0,1,5.41.14,12.28,12.28,0,0,1,4.31,3.06,19.11,19.11,0,0,1,5.28,8.63,30.93,30.93,0,0,1,.78,5.08c.09,1,.19,2,.34,3a7.88,7.88,0,0,0,3.65,5.95,16.71,16.71,0,0,0,2.3,1.1,19,19,0,0,1,2.25,1.05,11.45,11.45,0,0,1,3.12,2.61c2.93,3.56,3,8,3,12.37v.7c0,.13,0,.28,0,.44,0,1.06,0,2.64.87,3a8.23,8.23,0,0,0,3.22.21l.43,0,1.19-.08a20.72,20.72,0,0,1,2.85-.1c5.31.31,8.95,5.63,9.67,10.48a13.68,13.68,0,0,1-1.12,8,12,12,0,0,1-2.46,3.4,20.9,20.9,0,0,0-3.31,4A30.58,30.58,0,0,0,573.4,226a52.48,52.48,0,0,0-.81,5.4c0,.17,0,.35-.05.53a4.45,4.45,0,0,1-1.12,3.2c-1.46,1.3-3.58.31-5.28-.49-.44-.2-.83-.39-1.16-.51-.69-.25-2-.7-2.61-.13a2.21,2.21,0,0,0-.48,1.33c0,.23-.07.43-.12.62-.49,2-2.28,2.91-4.79,2.47-.29-.05-.59-.12-.91-.19a9.4,9.4,0,0,0-1.67-.28l-.12,0-.16,0-.2.09s0,.06,0,.25a8.11,8.11,0,0,0,1.21,2.49c.93,1.53,2,3.27,1.51,4.62a2.56,2.56,0,0,1-1.73,1.46,1.94,1.94,0,0,1-1.34-.1,4.25,4.25,0,0,0-.51-.14,2.47,2.47,0,0,0-1.24.1,5,5,0,0,0-1.14.64,6.84,6.84,0,0,1-.72.47,2.43,2.43,0,0,1-1.91.28,5.17,5.17,0,0,1-2.61-2.55,1.33,1.33,0,0,0-.5.5,4.12,4.12,0,0,0-.09,3.18.88.88,0,0,1-.54,1.18A1.07,1.07,0,0,1,543.89,250.55Zm.94-6a2.73,2.73,0,0,0-1,1,4.92,4.92,0,0,0-.26,4.08.31.31,0,0,0,.42.17.24.24,0,0,0,.12-.09s0-.06,0-.16a4.86,4.86,0,0,1,.15-3.81,2.21,2.21,0,0,1,.76-.76Zm1.31.84a4.45,4.45,0,0,0,2.08,2.06,1.79,1.79,0,0,0,1.36-.22c.22-.13.44-.28.65-.43a5.36,5.36,0,0,1,1.33-.74,3.24,3.24,0,0,1,1.58-.12,3.39,3.39,0,0,1,.61.16,1.37,1.37,0,0,0,.9.1,1.85,1.85,0,0,0,1.27-1c.37-1-.59-2.6-1.44-4a8.23,8.23,0,0,1-1.31-2.79,1,1,0,0,1,.2-.8,1.17,1.17,0,0,1,.45-.29l.14,0v-.07l.28,0a9,9,0,0,1,2,.3l.89.19c.78.13,3.38.39,4-1.94,0-.17.07-.35.1-.55a2.84,2.84,0,0,1,.72-1.77c1-.85,2.51-.3,3.34,0,.37.14.8.34,1.22.53,1.51.71,3.38,1.59,4.49.6a3.94,3.94,0,0,0,.88-2.7c0-.22,0-.39,0-.55a53.37,53.37,0,0,1,.83-5.47,31,31,0,0,1,3.94-10.46,21.94,21.94,0,0,1,3.41-4.11,11.14,11.14,0,0,0,2.32-3.19,13.09,13.09,0,0,0,1.06-7.6c-.68-4.57-4.07-9.58-9-9.86a19.4,19.4,0,0,0-2.75.09l-1.21.08-.37,0a8.83,8.83,0,0,1-3.56-.25c-1.4-.51-1.37-2.4-1.35-3.65v-1.15c0-4.2,0-8.55-2.82-11.91a10.86,10.86,0,0,0-2.93-2.44,17.51,17.51,0,0,0-2.15-1,17.09,17.09,0,0,1-2.41-1.15,8.57,8.57,0,0,1-4-6.46c-.15-1-.25-2.07-.34-3a31,31,0,0,0-.76-5,18.51,18.51,0,0,0-5.1-8.32,11.66,11.66,0,0,0-4-2.88,8.21,8.21,0,0,0-5-.12c-.63.16-1.27.36-1.89.55a15.93,15.93,0,0,1-4,.87,7.06,7.06,0,0,1-4.17-1.13,20.66,20.66,0,0,1-5.18-5.37c-1.66-2.21-3.37-4.5-5.92-5.72-2-1-4.15-.82-6.38-.66a23,23,0,0,1-3.81.08c-3-.27-4.74-2.24-6.47-4.16-.63-.69-1.29-1.41-2-2-2.44-2.17-5.43-2.72-8.91-1.64a21,21,0,0,0-8.22,5.31c-1.2,1.21-2.83,2.87-5,2.3a6.6,6.6,0,0,1-2.6-1.68c-.27-.25-.53-.48-.8-.69a4.39,4.39,0,0,0-3.32-1.13,5.69,5.69,0,0,0-3.5,2.21,13.84,13.84,0,0,0-2.31,5.36,19.17,19.17,0,0,1-1.54,4.29,9.82,9.82,0,0,1-3.61,3.36,8.56,8.56,0,0,0-3.53,3.45,14.53,14.53,0,0,0-.89,4,14,14,0,0,1-1,4.43c-.85,1.8-2.4,2.3-3.89,2.79a11.68,11.68,0,0,0-2.11.86,3.13,3.13,0,0,0-1.57,2.11,6.23,6.23,0,0,0,.77,4.11c1.06,2.17.09,4.54-.73,6.13-.51,1-1.08,2-1.69,2.9a21.36,21.36,0,0,0,2.2-3.67c.91-2,1.09-3.66.56-5.05-.09-.23-.18-.46-.28-.68a5.58,5.58,0,0,1-.53-4,3.63,3.63,0,0,1,2.55-2.15l.84-.26a11.49,11.49,0,0,0,2-.77,4.88,4.88,0,0,0,2.17-2.5,15.08,15.08,0,0,0,.83-3.89,14.26,14.26,0,0,1,1-4.38,8,8,0,0,1,3.55-3.34l.38-.23a8.32,8.32,0,0,0,3.13-3.11,19,19,0,0,0,1.44-4.1,13.66,13.66,0,0,1,2.49-5.7c.69-.81,2.56-2.62,4.84-1.87a7.32,7.32,0,0,1,2.5,1.65c.27.24.55.49.83.71a4.07,4.07,0,0,0,2.89,1.06,5.75,5.75,0,0,0,3.62-2.06,19.93,19.93,0,0,1,9.25-5.88,9,9,0,0,1,5.24.14,10.87,10.87,0,0,1,4.26,3.21l.52.59.06.06a19,19,0,0,0,2.62,2.61,7.56,7.56,0,0,0,4.26,1.55,23.73,23.73,0,0,0,3.27-.09c2.37-.17,4.82-.34,7.09,1a19.46,19.46,0,0,1,5.13,5.26l.53.7a18.62,18.62,0,0,0,5,5.12c2.7,1.57,5.51.94,8.38.09,2.08-.61,4-1.07,5.89-.46a10.83,10.83,0,0,1,4.43,3.15,17.8,17.8,0,0,1,4.89,8.73,35.84,35.84,0,0,1,.52,4.08c.1,1.21.21,2.45.43,3.64a9,9,0,0,0,3.43,5.75,14.42,14.42,0,0,0,3,1.57c.43.18.87.37,1.3.57a11.08,11.08,0,0,1,3.35,2.34,11.35,11.35,0,0,1,2.87,6.39,33.24,33.24,0,0,1,.25,5v1.61c0,1.25,0,2.81.79,3.74a3.48,3.48,0,0,0,2.52.94,24.07,24.07,0,0,0,3.5-.07l1-.07a10,10,0,0,1,2.94.05,8.47,8.47,0,0,1,3.44,1.63c4,3.14,5.44,9.44,3.37,14.33a10.87,10.87,0,0,1-2.41,3.53,22.54,22.54,0,0,0-3.14,3.71,29.36,29.36,0,0,0-3.91,9.51,48.76,48.76,0,0,0-.93,5c-.11.84-.21,1.7-.29,2.53l0,.42a3.65,3.65,0,0,1-.45,1.85c-.66,1-1.92.52-2.68.24l-.11,0c-.46-.16-.91-.36-1.35-.54a18.13,18.13,0,0,0-1.93-.73A3.6,3.6,0,0,0,562,233a2.31,2.31,0,0,0-1.05,1.54l-.09.51a3,3,0,0,1-.73,1.81,3.55,3.55,0,0,1-3,.5l-.76-.16c-1.19-.27-2.68-.6-3.32.37s.22,2.25.82,3.23l.19.32.28.43c.71,1.09,1.91,2.92.91,3.92a1.17,1.17,0,0,1-1.38.24,4.39,4.39,0,0,0-1.48-.2,4.53,4.53,0,0,0-2.2.84l-.23.16a2.21,2.21,0,0,1-1.45.6c-.76-.1-1.36-.93-1.8-1.71Zm-.81-1.07,1.13.65-.17-.33-.18-.34a.31.31,0,0,0-.18-.12V244h0v.17A2.92,2.92,0,0,0,545.33,244.35Z"/></svg>